<?xml version="1.0" encoding="UTF-8"?>
<svg id="Layer_1" xmlns="http://www.w3.org/2000/svg" version="1.1" xmlns:xlink="http://www.w3.org/1999/xlink" viewBox="0 0 648 648">
  <!-- Generator: Adobe Illustrator 30.1.0, SVG Export Plug-In . SVG Version: 2.1.1 Build 136)  -->
  <defs>
    <style>
      .st0 {
        fill: url(#linear-gradient1);
      }

      .st1 {
        fill: url(#linear-gradient);
      }
    </style>
    <linearGradient id="linear-gradient" x1="167.38" y1="324" x2="480.62" y2="324" gradientUnits="userSpaceOnUse">
      <stop offset="0" stop-color="#b34996"/>
      <stop offset="1" stop-color="#e3ac39"/>
    </linearGradient>
    <linearGradient id="linear-gradient1" x1="161.88" y1="324" x2="486.12" y2="324" xlink:href="#linear-gradient"/>
  </defs>
  <path class="st1" d="M479.01,471.25c2.14,2.14,2.14,5.62,0,7.76-1.07,1.07-2.47,1.61-3.88,1.61s-2.81-.54-3.88-1.61l-147.25-147.25-147.25,147.25c-1.07,1.07-2.47,1.61-3.88,1.61s-2.81-.54-3.88-1.61c-2.14-2.14-2.14-5.62,0-7.76l147.25-147.25-147.25-147.25c-2.14-2.14-2.14-5.62,0-7.76s5.62-2.14,7.76,0l147.25,147.25,147.25-147.25c2.14-2.14,5.62-2.14,7.76,0s2.14,5.62,0,7.76l-147.25,147.25,147.25,147.25Z"/>
  <path class="st0" d="M475.13,486.12c-2.93,0-5.69-1.14-7.77-3.22l-143.36-143.36-143.36,143.36c-2.08,2.08-4.84,3.22-7.77,3.22s-5.69-1.14-7.77-3.22c-2.08-2.08-3.22-4.83-3.22-7.77s1.14-5.7,3.22-7.77l143.36-143.36-143.36-143.36c-2.08-2.08-3.22-4.84-3.22-7.77s1.14-5.7,3.22-7.77c4.28-4.28,11.26-4.28,15.54,0l143.36,143.36,143.36-143.36c2.08-2.08,4.83-3.22,7.77-3.22s5.69,1.14,7.77,3.22c2.08,2.08,3.22,4.84,3.22,7.77s-1.14,5.69-3.22,7.77l-143.36,143.36,143.36,143.36c2.08,2.08,3.22,4.83,3.22,7.77s-1.14,5.7-3.22,7.77c-2.08,2.08-4.83,3.22-7.77,3.22Z"/>
</svg>