<?xml version="1.0" encoding="UTF-8"?>
<svg id="Layer_1" data-name="Layer 1" xmlns="http://www.w3.org/2000/svg" version="1.1" viewBox="0 0 648 648">
  <defs>
    <style>
      .cls-1 {
        opacity: .8;
      }

      .cls-2 {
        fill: #3e2f5b;
      }

      .cls-2, .cls-3 {
        stroke-width: 0px;
      }

      .cls-3 {
        fill: #fff;
      }
    </style>
  </defs>
  <g id="Layer_1-2" data-name="Layer 1-2">
    <rect class="cls-3" width="648" height="648"/>
  </g>
  <g id="Layer_1-2-2" data-name="Layer 1-2" class="cls-1">
    <rect class="cls-2" width="648" height="648"/>
  </g>
  <path class="cls-3" d="M454.4,350.8h-24.9l-1.8-4.4c-1.7-4.2-3.6-8.3-5.8-12.2-3.9-7.1-8.6-13.8-14-19.8-4.2-4.8-9-9.3-14-13.4-4.4-3.5-9.1-6.8-14-9.6-4.5-2.6-9.2-4.9-14-6.8-4.6-1.9-9.3-3.4-14-4.6-4.5-1.2-9.2-2.1-14-2.7-9.2-1.2-18.8-1.2-28,0-4.8.6-9.5,1.5-14,2.6-4.7,1.2-9.4,2.8-14,4.6-4.8,1.9-9.5,4.2-14,6.8-4.9,2.8-9.6,6.1-14,9.6-5.1,4-9.8,8.5-14,13.4-5.4,6.1-10.1,12.7-14,19.8-2.2,4-4.2,8.1-5.8,12.2l-1.8,4.4h-24.9L324,90l50.9,101.9-12.7,6.3-38.3-76.6-88.4,176.9c3.1-3,6.3-5.9,9.7-8.6,4.9-4,10.2-7.6,15.7-10.8,5.1-2.9,10.4-5.5,15.8-7.7,5.2-2.1,10.5-3.9,15.8-5.2,5.1-1.3,10.4-2.3,15.8-3,10.4-1.3,21.1-1.3,31.5,0,5.4.7,10.7,1.7,15.8,3,5.2,1.3,10.6,3.1,15.8,5.2,5.4,2.2,10.7,4.8,15.7,7.7,5.5,3.2,10.9,6.9,15.8,10.8,3.4,2.7,6.6,5.6,9.7,8.6l-20.4-40.9,12.7-6.3,49.7,99.5h-.2Z"/>
  <rect class="cls-3" x="324" y="217.7" width="104.1" height="14.2"/>
  <path class="cls-3" d="M450,558h-14.2v-92.3c0-61.7-50.2-111.9-111.9-111.9s-111.9,50.2-111.9,111.9v92.3h-14.2v-92.3c0-69.5,56.5-126,126-126s126,56.5,126,126v92.3h.2Z"/>
  <rect class="cls-3" x="249.7" y="415" width="148.7" height="14.2"/>
  <rect class="cls-3" x="279.4" y="459.6" width="89.2" height="14.2"/>
  <rect class="cls-3" x="294.3" y="504.2" width="59.5" height="14.2"/>
</svg>