<?xml version="1.0" encoding="UTF-8"?>
<svg id="Layer_1" xmlns="http://www.w3.org/2000/svg" version="1.1" viewBox="0 0 400 400">
  <!-- Generator: Adobe Illustrator 29.1.0, SVG Export Plug-In . SVG Version: 2.1.0 Build 142)  -->
  <path d="M0,0v400h400V0H0ZM219.7,328.8h-39.4v-9.4h39.4v9.4ZM229.6,299.2h-59.1v-9.4h59.1v9.4ZM249.3,269.7h-98.5v-9.4h98.5v9.4ZM283.5,355.1h-9.4v-61.1c0-40.9-33.3-74.1-74.1-74.1s-74.1,33.3-74.1,74.1v61.1h-9.4v-61.1c0-46.1,37.5-83.5,83.5-83.5s83.5,37.5,83.5,83.5v61.1ZM269.9,217.8l-1.2-2.9c-1.1-2.7-2.4-5.5-3.9-8.1-2.6-4.7-5.7-9.1-9.3-13.1-2.8-3.2-5.9-6.2-9.3-8.9-2.9-2.3-6-4.5-9.3-6.4-3-1.7-6.1-3.2-9.3-4.5-3.1-1.2-6.2-2.3-9.3-3.1-3-.8-6.1-1.4-9.3-1.8-6.1-.8-12.4-.8-18.5,0-3.2.4-6.3,1-9.3,1.8-3.1.8-6.2,1.8-9.3,3.1-3.2,1.3-6.3,2.8-9.3,4.5-3.3,1.9-6.4,4-9.3,6.3-3.4,2.7-6.5,5.7-9.3,8.8-3.6,4-6.7,8.4-9.3,13.1-1.5,2.6-2.8,5.3-3.9,8.1l-1.2,2.9h-16.5L200,44.9l33.8,67.5-8.4,4.2-25.4-50.7-58.6,117.2c2-2,4.2-3.9,6.4-5.7,3.2-2.6,6.8-5,10.4-7.2,3.4-1.9,6.9-3.7,10.4-5.1,3.4-1.4,6.9-2.6,10.4-3.4,3.4-.9,6.9-1.5,10.4-2,6.9-.9,14-.9,20.9,0,3.6.4,7.1,1.1,10.4,2,3.5.9,7,2.1,10.4,3.4,3.6,1.4,7.1,3.1,10.4,5.1,3.7,2.1,7.2,4.5,10.5,7.2,2.2,1.8,4.4,3.7,6.4,5.7l-13.5-27.1,8.4-4.2,33,65.9h-16.5ZM269,129.6v9.4h-69v-9.4h69Z"/>
</svg>