<?xml version="1.0" encoding="UTF-8"?>
<svg id="Layer_1" xmlns="http://www.w3.org/2000/svg" version="1.1" viewBox="0 0 400 400">
  <!-- Generator: Adobe Illustrator 30.4.0, SVG Export Plug-In . SVG Version: 2.1.4 Build 226)  -->
  <defs>
    <style>
      .st0 {
        fill: #b34996;
      }

      .st1 {
        fill: #e3ac39;
      }

      .st2 {
        fill: #3e2f5b;
      }
    </style>
  </defs>
  <rect class="st2" x="0" y="0" width="400" height="400" rx="200" ry="200"/>
  <g>
    <path class="st0" d="M279.13,216.26h-15.11l-1.09-2.67c-1.03-2.55-2.18-5.04-3.52-7.41-2.37-4.3-5.22-8.37-8.5-12.01-2.55-2.91-5.46-5.64-8.5-8.14-2.67-2.12-5.52-4.12-8.5-5.82-2.73-1.57-5.59-2.98-8.5-4.12-2.79-1.16-5.64-2.07-8.5-2.79-2.73-.73-5.59-1.27-8.5-1.64-5.59-.73-11.41-.73-16.99,0-2.91.36-5.77.91-8.5,1.57-2.85.73-5.71,1.7-8.5,2.79-2.91,1.16-5.77,2.55-8.5,4.12-2.98,1.7-5.82,3.7-8.5,5.82-3.09,2.43-5.95,5.16-8.5,8.14-3.28,3.7-6.13,7.71-8.5,12.01-1.34,2.43-2.55,4.91-3.52,7.41l-1.09,2.67h-15.11L200,58l30.89,61.84-7.71,3.82-23.24-46.48-53.64,107.35c1.88-1.82,3.82-3.58,5.89-5.22,2.98-2.43,6.19-4.61,9.53-6.55,3.09-1.76,6.32-3.34,9.59-4.68,3.16-1.27,6.37-2.37,9.59-3.16,3.09-.79,6.32-1.39,9.59-1.82,6.32-.79,12.8-.79,19.12,0,3.28.43,6.5,1.03,9.59,1.82,3.16.79,6.43,1.88,9.59,3.16,3.28,1.34,6.5,2.91,9.53,4.68,3.34,1.94,6.62,4.19,9.59,6.55,2.07,1.64,4,3.39,5.89,5.22l-12.38-24.82,7.71-3.82,30.16,60.39h-.15Z"/>
    <rect class="st0" x="200" y="135.49" width="63.17" height="8.62"/>
    <path class="st1" d="M276.46,342h-8.62v-56.01c0-37.45-30.47-67.91-67.91-67.91s-67.91,30.47-67.91,67.91v56.01h-8.62v-56.01c0-42.18,34.29-76.46,76.46-76.46s76.46,34.29,76.46,76.46v56.01h.13Z"/>
    <rect class="st1" x="154.91" y="255.23" width="90.24" height="8.62"/>
    <rect class="st1" x="172.94" y="282.29" width="54.13" height="8.62"/>
    <rect class="st1" x="181.97" y="309.36" width="36.11" height="8.62"/>
  </g>
</svg>