<?xml version="1.0" encoding="UTF-8"?>
<svg id="CoinIntelLogo" xmlns="http://www.w3.org/2000/svg" version="1.1" xmlns:xlink="http://www.w3.org/1999/xlink" viewBox="0 0 1144 500">
  <!-- Generator: Adobe Illustrator 30.1.0, SVG Export Plug-In . SVG Version: 2.1.1 Build 136)  -->
  <defs>
    <style>
      .st0 {
        fill: url(#linear-gradient2);
      }

      .st1 {
        fill: #80475e;
      }

      .st2 {
        fill: url(#linear-gradient9);
      }

      .st3 {
        fill: url(#linear-gradient8);
      }

      .st4 {
        isolation: isolate;
      }

      .st5 {
        stroke: url(#linear-gradient);
        stroke-linecap: round;
      }

      .st5, .st6 {
        fill: none;
        stroke-miterlimit: 10;
        stroke-width: 8px;
      }

      .st7 {
        fill: url(#linear-gradient7);
      }

      .st8 {
        fill: url(#linear-gradient4);
      }

      .st6 {
        stroke: url(#linear-gradient1);
      }

      .st9 {
        fill: #ffd972;
      }

      .st10 {
        fill: url(#linear-gradient5);
      }

      .st11 {
        fill: url(#linear-gradient3);
      }

      .st12 {
        fill: #542525;
      }

      .st13 {
        fill: url(#linear-gradient6);
      }
    </style>
    <linearGradient id="linear-gradient" x1="264.21" y1="805.57" x2="217.09" y2="758.43" gradientTransform="translate(0 -532)" gradientUnits="userSpaceOnUse">
      <stop offset="0" stop-color="#80475e"/>
      <stop offset="1" stop-color="#ffd972"/>
    </linearGradient>
    <linearGradient id="linear-gradient1" x1="5983.34" y1="923.38" x2="6146.59" y2="640.62" gradientTransform="translate(6186.77 -532) rotate(-180) scale(1 -1)" gradientUnits="userSpaceOnUse">
      <stop offset="0" stop-color="#80475e"/>
      <stop offset="1" stop-color="#ffd972"/>
    </linearGradient>
    <linearGradient id="linear-gradient2" x1="171.52" y1="774.16" x2="150.56" y2="753.18" gradientTransform="translate(0 -532)" gradientUnits="userSpaceOnUse">
      <stop offset=".3" stop-color="#80475e"/>
      <stop offset="1" stop-color="#ffd972"/>
    </linearGradient>
    <linearGradient id="linear-gradient3" x1="171.52" y1="810.82" x2="150.56" y2="789.84" gradientTransform="translate(0 -532)" gradientUnits="userSpaceOnUse">
      <stop offset=".3" stop-color="#80475e"/>
      <stop offset="1" stop-color="#ffd972"/>
    </linearGradient>
    <linearGradient id="linear-gradient4" x1="93.05" y1="810.82" x2="72.09" y2="789.84" gradientTransform="translate(0 -532)" gradientUnits="userSpaceOnUse">
      <stop offset="0" stop-color="#80475e"/>
      <stop offset=".76" stop-color="#ffd972"/>
    </linearGradient>
    <linearGradient id="linear-gradient5" x1="93.05" y1="774.16" x2="72.09" y2="753.18" gradientTransform="translate(0 -532)" gradientUnits="userSpaceOnUse">
      <stop offset="0" stop-color="#80475e"/>
      <stop offset=".76" stop-color="#ffd972"/>
    </linearGradient>
    <linearGradient id="linear-gradient6" x1="125.03" y1="705.52" x2="197.07" y2="705.52" gradientTransform="translate(0 -532)" gradientUnits="userSpaceOnUse">
      <stop offset="0" stop-color="#ffd972"/>
      <stop offset="1" stop-color="#80475e"/>
    </linearGradient>
    <linearGradient id="linear-gradient7" x1="160.16" y1="826.07" x2="95.3" y2="761.2" gradientTransform="translate(0 -532)" gradientUnits="userSpaceOnUse">
      <stop offset="0" stop-color="#80475e"/>
      <stop offset="1" stop-color="#ffd972"/>
    </linearGradient>
    <linearGradient id="linear-gradient8" x1="46.53" y1="858.49" x2="118.57" y2="858.49" gradientTransform="translate(0 -532)" gradientUnits="userSpaceOnUse">
      <stop offset="0" stop-color="#ffd972"/>
      <stop offset="1" stop-color="#80475e"/>
    </linearGradient>
    <linearGradient id="linear-gradient9" x1="148.3" y1="802.8" x2="83.44" y2="737.93" gradientTransform="translate(0 -532)" gradientUnits="userSpaceOnUse">
      <stop offset="0" stop-color="#80475e"/>
      <stop offset="1" stop-color="#ffd972"/>
    </linearGradient>
  </defs>
  <g class="st4">
    <path class="st12" d="M281.86,272.38c3.98,7.12,9.32,12.71,16.02,16.79,6.7,4.08,14.18,6.12,22.45,6.11,5.23,0,9.99-.58,14.29-1.74,4.29-1.15,8.19-2.88,11.69-5.19,3.5-2.3,6.62-5.03,9.34-8.17v11.62c-4.6,4.08-9.62,7.15-15.06,9.19-5.44,2.04-12.19,3.07-20.25,3.07-7.64,0-14.73-1.38-21.28-4.15-6.54-2.77-12.22-6.67-17.04-11.69-4.82-5.02-8.59-10.98-11.31-17.89-2.73-6.91-4.09-14.44-4.09-22.61,0-8.16,1.35-15.7,4.07-22.61,2.72-6.91,6.48-12.88,11.29-17.9,4.81-5.03,10.49-8.93,17.03-11.71,6.54-2.78,13.63-4.17,21.27-4.17,8.06,0,14.81,1.01,20.26,3.05,5.44,2.04,10.47,5.1,15.08,9.18v11.46c-2.72-3.14-5.86-5.83-9.42-8.08-3.56-2.25-7.49-3.95-11.78-5.1-4.29-1.15-9-1.72-14.13-1.72-8.27,0-15.75,2.02-22.45,6.06-6.7,4.03-12.03,9.61-16,16.73-3.98,7.12-5.96,15.39-5.95,24.81,0,9.32,2,17.53,5.98,24.65Z"/>
    <path class="st12" d="M392.38,247.04c3.24-5.65,7.66-10.1,13.26-13.35,5.6-3.25,11.9-4.87,18.92-4.88,7.01,0,13.32,1.62,18.92,4.86,5.6,3.24,10.02,7.69,13.27,13.34,3.25,5.65,4.87,12.14,4.88,19.47,0,7.22-1.62,13.69-4.86,19.39-3.24,5.71-7.66,10.19-13.26,13.43-5.6,3.25-11.91,4.87-18.92,4.88-7.01,0-13.32-1.62-18.92-4.86-5.6-3.24-10.03-7.71-13.27-13.42-3.25-5.7-4.87-12.16-4.88-19.39,0-7.32,1.61-13.82,4.86-19.47ZM399.62,282.05c2.51,4.5,5.94,8.03,10.29,10.59,4.34,2.56,9.24,3.84,14.68,3.84,5.44,0,10.33-1.29,14.68-3.85,4.34-2.57,7.77-6.1,10.28-10.6,2.51-4.5,3.76-9.68,3.76-15.54,0-5.75-1.26-10.91-3.78-15.46-2.51-4.55-5.95-8.11-10.29-10.67-4.35-2.56-9.24-3.84-14.68-3.84-5.44,0-10.34,1.29-14.68,3.85-4.34,2.57-7.77,6.1-10.28,10.6-2.51,4.5-3.76,9.68-3.76,15.54,0,5.86,1.26,11.04,3.78,15.54Z"/>
    <path class="st12" d="M495.97,193.53c1.15-1.1,2.51-1.65,4.08-1.65,1.67,0,3.06.55,4.16,1.65,1.1,1.1,1.65,2.49,1.65,4.16,0,1.57-.55,2.93-1.65,4.08-1.1,1.15-2.49,1.73-4.16,1.73-1.57,0-2.93-.57-4.08-1.72-1.15-1.15-1.73-2.51-1.73-4.08,0-1.67.57-3.06,1.72-4.16ZM504.15,230.34l.04,72.22h-8.16s-.04-72.22-.04-72.22h8.16Z"/>
    <path class="st12" d="M587.05,241.6c-2.72-3.45-7.02-5.18-12.88-5.17-4.08,0-7.72.97-10.91,2.91-3.19,1.94-5.7,4.58-7.53,7.93-1.83,3.35-2.74,7.12-2.74,11.31l.02,43.96h-8.16s-.04-72.22-.04-72.22h8.16s0,15.07,0,15.07c1.98-5.23,4.99-9.32,9.02-12.25,4.03-2.93,8.71-4.4,14.05-4.4,7.54,0,13.29,2.37,17.27,7.13,3.98,4.76,5.97,11.17,5.98,19.23l.02,47.41h-8.16s-.02-46.47-.02-46.47c0-6.17-1.37-10.99-4.09-14.44Z"/>
    <path class="st12" d="M646.34,283.33c2.57,3.77,5.73,6.78,9.5,9.02,3.77,2.25,8.27,3.37,13.5,3.37,7.12,0,12.69-1.97,16.72-5.9,4.03-3.93,6.04-8.93,6.04-15,0-5.34-1.21-9.63-3.62-12.87-2.41-3.24-5.52-5.88-9.34-7.92-3.82-2.04-7.83-3.84-12.01-5.41-3.14-1.15-6.41-2.53-9.81-4.16-3.4-1.62-6.57-3.61-9.5-5.96-2.93-2.35-5.32-5.2-7.15-8.55-1.83-3.35-2.75-7.38-2.75-12.09,0-5.23,1.25-9.86,3.76-13.9,2.51-4.03,6.01-7.17,10.51-9.42,4.5-2.25,9.58-3.38,15.23-3.38,5.86,0,10.91,1.09,15.15,3.29,4.24,2.2,7.77,4.97,10.6,8.32,2.83,3.35,4.97,6.8,6.44,10.36l-7.53,4.24c-1.16-2.83-2.8-5.6-4.95-8.32-2.15-2.72-4.85-4.99-8.09-6.83-3.25-1.83-7.28-2.74-12.09-2.74-6.39,0-11.3,1.65-14.75,4.95-3.45,3.3-5.18,7.41-5.17,12.33,0,4.08,1,7.59,2.99,10.52,1.99,2.93,4.97,5.57,8.95,7.92,3.98,2.35,8.9,4.58,14.76,6.67,3.04,1.15,6.18,2.56,9.42,4.23,3.24,1.67,6.2,3.77,8.87,6.27,2.67,2.51,4.84,5.52,6.52,9.02,1.67,3.51,2.52,7.67,2.52,12.48,0,4.5-.81,8.58-2.43,12.25-1.62,3.67-3.87,6.83-6.75,9.5-2.88,2.67-6.25,4.71-10.12,6.13-3.87,1.41-8.06,2.12-12.56,2.13-6.39,0-11.99-1.3-16.8-3.92-4.82-2.61-8.85-6.12-12.09-10.51-3.25-4.39-5.76-9.15-7.54-14.28l7.06-4.4c1.78,4.61,3.96,8.79,6.52,12.56Z"/>
    <path class="st12" d="M742.76,179.98l.06,122.46h-8.16s-.06-122.45-.06-122.45h8.16Z"/>
    <path class="st12" d="M791.65,299.11c-5.03-3.24-8.98-7.71-11.86-13.42-2.88-5.7-4.32-12.22-4.33-19.54,0-7.33,1.46-13.82,4.38-19.47,2.93-5.65,7.01-10.08,12.24-13.27,5.23-3.19,11.25-4.79,18.05-4.8,6.59,0,12.38,1.51,17.35,4.54,4.97,3.03,8.85,7.24,11.62,12.63,2.78,5.39,4.17,11.59,4.17,18.6,0,.63-.03,1.31-.08,2.04-.05.73-.13,1.36-.23,1.88l-62.33.03v-7.06s56.2-.03,56.2-.03l-3.45,4.87c.21-.52.44-1.23.71-2.12.26-.89.39-1.75.39-2.59,0-4.92-1.08-9.31-3.23-13.19-2.15-3.87-5.05-6.91-8.72-9.1-3.67-2.2-7.8-3.29-12.4-3.29-5.34,0-9.97,1.24-13.89,3.7-3.92,2.46-6.98,5.92-9.18,10.37-2.2,4.45-3.29,9.71-3.29,15.78,0,6.18,1.08,11.57,3.23,16.17,2.15,4.61,5.19,8.16,9.11,10.67,3.93,2.51,8.5,3.76,13.74,3.76,5.55,0,10.39-1.21,14.52-3.62,4.13-2.41,7.82-6.18,11.06-11.31l6.6,4.24c-4.08,6.28-8.81,10.92-14.2,13.9-5.39,2.98-11.69,4.48-18.92,4.48-6.49,0-12.25-1.62-17.27-4.86Z"/>
    <path class="st12" d="M888.2,290.82c2.72,3.61,7.01,5.41,12.88,5.41,4.08,0,7.72-1,10.91-2.99,3.19-1.99,5.7-4.66,7.53-8.01,1.83-3.35,2.74-7.07,2.74-11.15l-.02-43.96h8.16s.04,72.22.04,72.22h-8.16s0-15.07,0-15.07c-1.99,5.24-4.97,9.32-8.94,12.25-3.98,2.93-8.69,4.4-14.13,4.4-7.54,0-13.29-2.43-17.27-7.29-3.98-4.87-5.97-11.43-5.98-19.7l-.03-46.79h8.16s.02,45.84.02,45.84c0,6.28,1.36,11.23,4.09,14.83Z"/>
    <path class="st12" d="M990.06,230.09v7.69s-31.71.02-31.71.02v-7.69s31.71-.02,31.71-.02ZM978.27,204.97l.05,97.34h-8.16s-.05-97.34-.05-97.34h8.16Z"/>
    <path class="st12" d="M1026.2,302.29h-8.16s-.06-122.45-.06-122.45h8.16s.06,122.45.06,122.45ZM1060.32,241.35c-2.67-3.45-6.99-5.18-12.96-5.17-4.08,0-7.72,1-10.91,2.99-3.19,1.99-5.7,4.66-7.53,8.01-1.83,3.35-2.74,7.07-2.74,11.15h-2.83c0-5.75,1.12-10.86,3.37-15.31,2.25-4.45,5.31-7.98,9.18-10.6,3.87-2.62,8.32-3.93,13.34-3.93,5.02,0,9.26,1.02,12.72,3.05s6.07,5.02,7.85,8.95c1.78,3.92,2.67,8.71,2.68,14.36l.02,47.41h-8.16s-.02-46.47-.02-46.47c0-6.17-1.34-10.99-4.01-14.44Z"/>
  </g>
  <line class="st5" x1="240.65" y1="208.53" x2="240.65" y2="291.47"/>
  <g class="st4">
    <g class="st4">
      <g class="st4">
        <g class="st4">
          <g class="st4">
            <path class="st12" d="M1085.55,188.95c.68-1.62,1.61-3.03,2.81-4.23,1.19-1.19,2.6-2.12,4.23-2.77s3.37-.98,5.24-.98,3.65.33,5.26.98,3.02,1.58,4.21,2.77c1.19,1.19,2.13,2.6,2.81,4.23s1.02,3.4,1.02,5.32-.34,3.69-1.02,5.32-1.61,3.03-2.81,4.23c-1.19,1.19-2.6,2.12-4.21,2.77s-3.37.98-5.26.98-3.62-.33-5.24-.98-3.04-1.58-4.23-2.77c-1.19-1.19-2.13-2.6-2.81-4.23-.68-1.62-1.02-3.4-1.02-5.32s.34-3.69,1.02-5.32ZM1086.81,199.08c.6,1.47,1.45,2.74,2.55,3.82,1.09,1.08,2.36,1.92,3.8,2.51,1.44.59,3,.89,4.67.89s3.23-.29,4.67-.89c1.44-.59,2.71-1.43,3.8-2.51,1.09-1.08,1.94-2.36,2.55-3.82.6-1.46.9-3.07.9-4.82s-.3-3.35-.9-4.82c-.6-1.46-1.45-2.74-2.55-3.82-1.1-1.08-2.36-1.92-3.8-2.51-1.44-.59-3-.89-4.67-.89s-3.23.3-4.67.89c-1.44.59-2.71,1.43-3.8,2.51-1.1,1.08-1.94,2.36-2.55,3.82-.6,1.47-.9,3.07-.9,4.82s.3,3.36.9,4.82ZM1094.8,186.14v15.51h-1.25v-15.51h1.25ZM1094.21,186.14h2.88c1.5,0,2.76.39,3.77,1.18,1.01.79,1.51,1.9,1.51,3.32s-.51,2.54-1.51,3.32c-1.01.79-2.27,1.18-3.77,1.18h-2.88v-1.07h2.88c1.21,0,2.18-.29,2.94-.89s1.13-1.44,1.13-2.55-.38-1.98-1.13-2.55-1.73-.85-2.94-.85h-2.88v-1.11ZM1097.57,194.26l5.28,7.39h-1.51l-5.17-7.39h1.4Z"/>
          </g>
        </g>
      </g>
    </g>
  </g>
  <g>
    <rect class="st6" x="31.39" y="120" width="180.83" height="260"/>
    <circle class="st0" cx="161.04" cy="231.67" r="14.83"/>
    <circle class="st11" cx="161.04" cy="268.33" r="14.83"/>
    <circle class="st8" cx="82.57" cy="268.33" r="14.83"/>
    <circle class="st10" cx="82.57" cy="231.67" r="14.83"/>
    <path class="st13" d="M197.07,209.53l-44.98-.03-14.33-12.73h28.54l-41.27-41.27v-18l61.07,61.07s.05.04.07.07c0,0,.02,0,.03.02l10.87,10.87h0Z"/>
    <polygon class="st7" points="127.73 326.5 127.73 196.77 140.46 209.5 140.46 209.5 140.46 313.77 127.73 326.5"/>
    <path class="st9" d="M46.54,137.5h63c0,34.77-28.23,63-63,63h0v-63h0Z"/>
    <path class="st3" d="M118.57,344.5v18l-61.07-61.07s-.05-.04-.07-.07c0,0-.02-.01-.03-.02l-10.87-10.87,44.98.03,14.33,12.73h-28.54s41.27,41.27,41.27,41.27Z"/>
    <polygon class="st2" points="115.87 173.5 115.87 303.23 103.15 290.5 103.15 290.5 103.15 186.23 115.87 173.5"/>
    <path class="st1" d="M197.06,362.5h-63c0-34.77,28.23-63,63-63h0v63h0Z"/>
  </g>
</svg>