<?xml version="1.0" encoding="UTF-8"?>
<svg xmlns="http://www.w3.org/2000/svg" version="1.1" xmlns:xlink="http://www.w3.org/1999/xlink" viewBox="0 0 400 400">
  <defs>
    <style>
      .cls-1 {
        fill: url(#linear-gradient-2);
      }

      .cls-2 {
        fill: none;
        stroke: url(#linear-gradient);
        stroke-miterlimit: 10;
        stroke-width: 8px;
      }

      .cls-3 {
        fill: #80475e;
      }

      .cls-4 {
        fill: #251101;
      }

      .cls-5 {
        fill: url(#linear-gradient-4);
      }

      .cls-6 {
        fill: url(#linear-gradient-3);
      }

      .cls-7 {
        fill: url(#linear-gradient-5);
      }

      .cls-8 {
        fill: url(#linear-gradient-8);
      }

      .cls-9 {
        fill: url(#linear-gradient-7);
      }

      .cls-10 {
        fill: url(#linear-gradient-9);
      }

      .cls-11 {
        fill: #ffd972;
      }

      .cls-12 {
        fill: url(#linear-gradient-6);
      }
    </style>
    <linearGradient id="linear-gradient" x1="-413.094" y1="58.61" x2="-249.906" y2="341.39" gradientTransform="translate(-131.5 400) rotate(-180)" gradientUnits="userSpaceOnUse">
      <stop offset="0" stop-color="#80475e"/>
      <stop offset="1" stop-color="#ffd972"/>
    </linearGradient>
    <linearGradient id="linear-gradient-2" x1="249.7" y1="207.8" x2="228.7" y2="228.8" gradientTransform="translate(0 400) scale(1 -1)" gradientUnits="userSpaceOnUse">
      <stop offset=".3" stop-color="#80475e"/>
      <stop offset="1" stop-color="#ffd972"/>
    </linearGradient>
    <linearGradient id="linear-gradient-3" x1="249.7" y1="171.2" x2="228.7" y2="192.2" gradientTransform="translate(0 400) scale(1 -1)" gradientUnits="userSpaceOnUse">
      <stop offset=".3" stop-color="#80475e"/>
      <stop offset="1" stop-color="#ffd972"/>
    </linearGradient>
    <linearGradient id="linear-gradient-4" x1="171.3" y1="171.2" x2="150.3" y2="192.2" gradientTransform="translate(0 400) scale(1 -1)" gradientUnits="userSpaceOnUse">
      <stop offset="0" stop-color="#80475e"/>
      <stop offset=".8" stop-color="#ffd972"/>
    </linearGradient>
    <linearGradient id="linear-gradient-5" x1="171.3" y1="207.8" x2="150.3" y2="228.8" gradientTransform="translate(0 400) scale(1 -1)" gradientUnits="userSpaceOnUse">
      <stop offset="0" stop-color="#80475e"/>
      <stop offset=".8" stop-color="#ffd972"/>
    </linearGradient>
    <linearGradient id="linear-gradient-6" x1="203.2" y1="276.55" x2="275.3" y2="276.55" gradientTransform="translate(0 400) scale(1 -1)" gradientUnits="userSpaceOnUse">
      <stop offset="0" stop-color="#ffd972"/>
      <stop offset="1" stop-color="#80475e"/>
    </linearGradient>
    <linearGradient id="linear-gradient-7" x1="238.4" y1="155.9" x2="173.5" y2="220.8" gradientTransform="translate(0 400) scale(1 -1)" gradientUnits="userSpaceOnUse">
      <stop offset="0" stop-color="#80475e"/>
      <stop offset="1" stop-color="#ffd972"/>
    </linearGradient>
    <linearGradient id="linear-gradient-8" x1="124.7" y1="123.5" x2="196.8" y2="123.5" gradientTransform="translate(0 400) scale(1 -1)" gradientUnits="userSpaceOnUse">
      <stop offset="0" stop-color="#ffd972"/>
      <stop offset="1" stop-color="#80475e"/>
    </linearGradient>
    <linearGradient id="linear-gradient-9" x1="226.5" y1="179.2" x2="161.6" y2="244.1" gradientTransform="translate(0 400) scale(1 -1)" gradientUnits="userSpaceOnUse">
      <stop offset="0" stop-color="#80475e"/>
      <stop offset="1" stop-color="#ffd972"/>
    </linearGradient>
  </defs>
  <!-- Generator: Adobe Illustrator 28.7.4, SVG Export Plug-In . SVG Version: 1.2.0 Build 166)  -->
  <g>
    <g id="Layer_1">
      <g id="Layer_1-2" data-name="Layer_1">
        <path class="cls-4" d="M200,0h0c110.457,0,200,89.543,200,200h0c0,110.457-89.543,200-200,200h0C89.543,400,0,310.457,0,200h0C0,89.543,89.543,0,200,0Z"/>
        <g>
          <rect class="cls-2" x="109.6" y="70" width="180.8" height="260"/>
          <g>
            <circle class="cls-1" cx="239.2" cy="181.7" r="14.8"/>
            <circle class="cls-6" cx="239.2" cy="218.3" r="14.8"/>
          </g>
          <g>
            <circle class="cls-5" cx="160.8" cy="218.3" r="14.8"/>
            <circle class="cls-7" cx="160.8" cy="181.7" r="14.8"/>
          </g>
          <g>
            <path class="cls-12" d="M275.3,159.5h-45l-14.3-12.8h28.5l-41.3-41.3v-18l61.1,61.1h0l10.9,10.9.1.1Z"/>
            <polygon class="cls-9" points="205.9 276.5 205.9 146.8 218.7 159.5 218.7 159.5 218.7 263.8 205.9 276.5"/>
            <path class="cls-11" d="M124.7,87.5h63c0,34.8-28.2,63-63,63h0v-63h0Z"/>
            <path class="cls-8" d="M196.8,294.5v18l-61.1-61.1h0l-10.9-10.9h45l14.3,12.8h-28.5l41.3,41.3-.1-.1Z"/>
            <polygon class="cls-10" points="194.1 123.5 194.1 253.2 181.3 240.5 181.3 240.5 181.3 136.2 194.1 123.5"/>
            <path class="cls-3" d="M275.2,312.5h-63c0-34.8,28.2-63,63-63h0v63h0Z"/>
          </g>
        </g>
      </g>
    </g>
  </g>
</svg>