<?xml version="1.0" encoding="UTF-8"?>
<svg id="Layer_1" xmlns="http://www.w3.org/2000/svg" version="1.1" xmlns:xlink="http://www.w3.org/1999/xlink" viewBox="0 0 400 400">
  <!-- Generator: Adobe Illustrator 30.4.0, SVG Export Plug-In . SVG Version: 2.1.4 Build 226)  -->
  <defs>
    <style>
      .st0 {
        fill: url(#linear-gradient2);
      }

      .st1 {
        fill: none;
        stroke: url(#linear-gradient);
        stroke-miterlimit: 10;
        stroke-width: 8px;
      }

      .st2 {
        fill: #80475e;
      }

      .st3 {
        fill: #251101;
      }

      .st4 {
        fill: url(#linear-gradient1);
      }

      .st5 {
        fill: url(#linear-gradient8);
      }

      .st6 {
        fill: url(#linear-gradient7);
      }

      .st7 {
        fill: url(#linear-gradient4);
      }

      .st8 {
        fill: #ffd972;
      }

      .st9 {
        fill: url(#linear-gradient5);
      }

      .st10 {
        fill: url(#linear-gradient3);
      }

      .st11 {
        fill: url(#linear-gradient6);
      }
    </style>
    <linearGradient id="linear-gradient" x1="-1931.09" y1="1021.39" x2="-1767.91" y2="738.61" gradientTransform="translate(-1649.5 -680) scale(-1 1)" gradientUnits="userSpaceOnUse">
      <stop offset="0" stop-color="#80475e"/>
      <stop offset="1" stop-color="#ffd972"/>
    </linearGradient>
    <linearGradient id="linear-gradient1" x1="249.7" y1="872.2" x2="228.7" y2="851.2" gradientTransform="translate(0 -680)" gradientUnits="userSpaceOnUse">
      <stop offset=".3" stop-color="#80475e"/>
      <stop offset="1" stop-color="#ffd972"/>
    </linearGradient>
    <linearGradient id="linear-gradient2" x1="249.7" y1="908.8" x2="228.7" y2="887.8" gradientTransform="translate(0 -680)" gradientUnits="userSpaceOnUse">
      <stop offset=".3" stop-color="#80475e"/>
      <stop offset="1" stop-color="#ffd972"/>
    </linearGradient>
    <linearGradient id="linear-gradient3" x1="171.3" y1="908.8" x2="150.3" y2="887.8" gradientTransform="translate(0 -680)" gradientUnits="userSpaceOnUse">
      <stop offset="0" stop-color="#80475e"/>
      <stop offset=".8" stop-color="#ffd972"/>
    </linearGradient>
    <linearGradient id="linear-gradient4" x1="171.3" y1="872.2" x2="150.3" y2="851.2" gradientTransform="translate(0 -680)" gradientUnits="userSpaceOnUse">
      <stop offset="0" stop-color="#80475e"/>
      <stop offset=".8" stop-color="#ffd972"/>
    </linearGradient>
    <linearGradient id="linear-gradient5" x1="203.2" y1="803.45" x2="275.3" y2="803.45" gradientTransform="translate(0 -680)" gradientUnits="userSpaceOnUse">
      <stop offset="0" stop-color="#ffd972"/>
      <stop offset="1" stop-color="#80475e"/>
    </linearGradient>
    <linearGradient id="linear-gradient6" x1="238.4" y1="924.1" x2="173.5" y2="859.2" gradientTransform="translate(0 -680)" gradientUnits="userSpaceOnUse">
      <stop offset="0" stop-color="#80475e"/>
      <stop offset="1" stop-color="#ffd972"/>
    </linearGradient>
    <linearGradient id="linear-gradient7" x1="124.7" y1="956.5" x2="196.8" y2="956.5" gradientTransform="translate(0 -680)" gradientUnits="userSpaceOnUse">
      <stop offset="0" stop-color="#ffd972"/>
      <stop offset="1" stop-color="#80475e"/>
    </linearGradient>
    <linearGradient id="linear-gradient8" x1="226.5" y1="900.8" x2="161.6" y2="835.9" gradientTransform="translate(0 -680)" gradientUnits="userSpaceOnUse">
      <stop offset="0" stop-color="#80475e"/>
      <stop offset="1" stop-color="#ffd972"/>
    </linearGradient>
  </defs>
  <circle class="st3" cx="200" cy="200" r="200"/>
  <g>
    <rect class="st1" x="109.6" y="70" width="180.8" height="260"/>
    <circle class="st4" cx="239.2" cy="181.7" r="14.8"/>
    <circle class="st0" cx="239.2" cy="218.3" r="14.8"/>
    <circle class="st10" cx="160.8" cy="218.3" r="14.8"/>
    <circle class="st7" cx="160.8" cy="181.7" r="14.8"/>
    <path class="st9" d="M275.3,159.5h-45l-14.3-12.8h28.5l-41.3-41.3v-18l61.1,61.1h0l10.9,10.9.1.1Z"/>
    <polygon class="st11" points="205.9 276.5 205.9 146.8 218.7 159.5 218.7 159.5 218.7 263.8 205.9 276.5"/>
    <path class="st8" d="M124.7,87.5h63c0,34.8-28.2,63-63,63h0v-63h0Z"/>
    <path class="st6" d="M196.8,294.5v18l-61.1-61.1h0l-10.9-10.9h45l14.3,12.8h-28.5l41.3,41.3-.1-.1h0Z"/>
    <polygon class="st5" points="194.1 123.5 194.1 253.2 181.3 240.5 181.3 240.5 181.3 136.2 194.1 123.5"/>
    <path class="st2" d="M275.2,312.5h-63c0-34.8,28.2-63,63-63h0v63h0Z"/>
  </g>
</svg>