<?xml version="1.0" encoding="UTF-8"?>
<svg id="Layer_1" xmlns="http://www.w3.org/2000/svg" version="1.1" viewBox="0 0 500 500">
  <!-- Generator: Adobe Illustrator 29.1.0, SVG Export Plug-In . SVG Version: 2.1.0 Build 142)  -->
  <path d="M500,250c0,138.1-111.9,250-250,250S0,388.1,0,250,111.9,0,250,0s250,111.9,250,250Z" fill="#3e2f5b"/>
  <path d="M250.13,95c-87.236,0-157.757,71.041-157.757,158.929,0,70.253,45.186,129.722,107.87,150.769,7.837,1.582,10.708-3.42,10.708-7.627,0-3.684-.258-16.314-.258-29.472-43.884,9.474-53.023-18.945-53.023-18.945-7.052-18.419-17.502-23.153-17.502-23.153-14.363-9.736,1.046-9.736,1.046-9.736,15.933,1.053,24.293,16.314,24.293,16.314,14.102,24.206,36.825,17.366,45.967,13.156,1.305-10.262,5.486-17.366,9.926-21.312-35.001-3.684-71.826-17.366-71.826-78.414,0-17.366,6.265-31.575,16.191-42.625-1.566-3.946-7.052-20.263,1.569-42.102,0,0,13.32-4.211,43.355,16.314,12.859-3.479,26.12-5.249,39.441-5.264,13.32,0,26.899,1.844,39.438,5.264,30.038-20.524,43.358-16.314,43.358-16.314,8.622,21.839,3.132,38.156,1.566,42.102,10.188,11.05,16.194,25.258,16.194,42.625,0,61.047-36.825,74.464-72.088,78.414,5.748,4.999,10.708,14.47,10.708,29.469,0,21.312-.258,38.417-.258,43.678,0,4.211,2.874,9.213,10.708,7.634,62.684-21.054,107.87-80.519,107.87-150.772.258-87.888-70.521-158.929-157.496-158.929Z" fill="#fff" fill-rule="evenodd"/>
</svg>