<?xml version="1.0" encoding="UTF-8"?>
<svg id="Layer_1" xmlns="http://www.w3.org/2000/svg" version="1.1" viewBox="0 0 500 500">
  <!-- Generator: Adobe Illustrator 29.1.0, SVG Export Plug-In . SVG Version: 2.1.0 Build 142)  -->
  <defs>
    <style>
      .st0 {
        fill: #fff;
      }

      .st1 {
        fill: #3e2f5b;
      }
    </style>
  </defs>
  <path class="st1" d="M500,250c0,138.1-111.9,250-250,250S0,388.1,0,250,111.9,0,250,0s250,111.9,250,250Z"/>
  <path class="st0" d="M178.1,375h-56.5v-168.7h56.5v168.7ZM149.9,183.3h-.4c-18.9,0-31.2-12.9-31.2-29.2s12.6-29.2,31.9-29.2,31.2,12.6,31.6,29.2c0,16.2-12.3,29.2-31.9,29.2h0ZM381.6,375h-56.4v-90.2c0-22.7-8.2-38.1-28.6-38.1s-24.9,10.4-29,20.5c-1.5,3.6-1.9,8.6-1.9,13.7v94.2h-56.5s.8-152.9,0-168.7h56.5v23.9c7.5-11.5,20.9-27.9,50.9-27.9s65,24.1,65,75.9v96.7Z"/>
</svg>