<?xml version="1.0" encoding="UTF-8"?>
<svg id="Layer_1" data-name="Layer 1" xmlns="http://www.w3.org/2000/svg" version="1.1" xmlns:xlink="http://www.w3.org/1999/xlink" viewBox="0 0 500 500">
  <defs>
    <style>
      .cls-1 {
        fill: url(#linear-gradient);
        stroke-width: 0px;
      }

      .cls-2 {
        fill: url(#linear-gradient-2);
        stroke: #fff;
      }
    </style>
    <linearGradient id="linear-gradient" x1="50.3" y1="408.5" x2="487.3" y2="61.7" gradientTransform="translate(0 500) scale(1 -1)" gradientUnits="userSpaceOnUse">
      <stop offset="0" stop-color="#9013fe"/>
      <stop offset="1" stop-color="#6610f2"/>
    </linearGradient>
    <linearGradient id="linear-gradient-2" x1="184.7" y1="339.5" x2="282.4" y2="174.4" gradientTransform="translate(0 500) scale(1 -1)" gradientUnits="userSpaceOnUse">
      <stop offset="0" stop-color="#fff"/>
      <stop offset="1" stop-color="#f1e5fc"/>
    </linearGradient>
  </defs>
  <path class="cls-1" d="M55.2,102.9c-.9-27.1,20.2-52.1,48.7-52.1h292.3c28.5,0,49.6,25,48.7,52.1-.9,26,.3,59.7,8.8,87.2,8.5,27.6,22.9,45,46.4,47.2v25.4c-23.5,2.2-37.9,19.7-46.4,47.2-8.5,27.5-9.7,61.2-8.8,87.2.9,27.1-20.2,52.1-48.7,52.1H103.8c-28.5,0-49.6-25-48.7-52.1.9-26-.3-59.7-8.8-87.2-8.5-27.6-22.9-45-46.4-47.2v-25.4c23.5-2.2,37.9-19.7,46.4-47.2,8.5-27.5,9.7-61.2,8.8-87.2Z"/>
  <path class="cls-2" d="M260.8,355.9c46.2,0,74-22.6,74-59.9s-19.9-48.6-49.3-51.8v-1.2c21.7-3.5,38.7-23.6,38.7-46.1,0-32-25.3-52.9-63.8-52.9h-86.7v211.9h87.1ZM207.4,170.9h44.8c24.4,0,38.2,10.9,38.2,30.5s-16.1,32.7-45.3,32.7h-37.8v-63.3ZM207.4,329v-69.8h44.5c31.9,0,48.4,11.7,48.4,34.7s-16.1,35.1-46.5,35.1h-46.5Z"/>
</svg>