<?xml version="1.0" encoding="UTF-8"?>
<svg id="Layer_1" xmlns="http://www.w3.org/2000/svg" version="1.1" viewBox="0 0 500 500">
  <!-- Generator: Adobe Illustrator 30.1.0, SVG Export Plug-In . SVG Version: 2.1.1 Build 136)  -->
  <defs>
    <style>
      .st0 {
        fill: #092e20;
      }
    </style>
  </defs>
  <path class="st0" d="M58.95,162.66h27.34v126.57c-14.03,2.66-24.33,3.73-35.51,3.73-33.38,0-50.78-15.09-50.78-44.04s18.47-45.99,47.05-45.99c4.44,0,7.81.35,11.9,1.42,0,0,0-41.69,0-41.69ZM58.95,226.37c-3.2-1.06-5.86-1.42-9.23-1.42-13.85,0-21.84,8.52-21.84,23.44s7.64,22.55,21.66,22.55c3.02,0,5.5-.18,9.41-.71v-43.86Z"/>
  <path class="st0" d="M129.79,204.88v63.39c0,21.84-1.6,32.32-6.39,41.37-4.44,8.7-10.3,14.2-22.37,20.24l-25.39-12.07c12.07-5.68,17.93-10.65,21.66-18.29,3.91-7.81,5.15-16.87,5.15-40.66v-53.98h27.34ZM102.45,162.8h27.34v28.05h-27.34v-28.05Z"/>
  <path class="st0" d="M146.31,211.1c12.08-5.68,23.62-8.17,36.22-8.17,14.03,0,23.26,3.73,27.34,11.01,2.31,4.08,3.02,9.41,3.02,20.78v55.57c-12.25,1.78-27.7,3.02-39.06,3.02-22.9,0-33.2-7.99-33.2-25.75,0-19.18,13.67-28.05,47.23-30.9v-6.04c0-4.97-2.49-6.75-9.41-6.75-10.12,0-21.48,2.84-32.14,8.35v-21.13h0ZM189.1,254.6c-18.11,1.78-23.97,4.62-23.97,11.72,0,5.33,3.37,7.81,10.83,7.81,4.08,0,7.81-.35,13.14-1.24v-18.29h0Z"/>
  <path class="st0" d="M226.21,209.14c16.16-4.26,29.47-6.21,42.97-6.21s24.15,3.19,30.19,9.41c5.68,5.86,7.46,12.25,7.46,25.92v53.62h-27.34v-52.56c0-10.48-3.55-14.38-13.32-14.38-3.73,0-7.1.36-12.61,1.95v64.99h-27.34v-82.74Z"/>
  <path class="st0" d="M317.46,306.8c9.59,4.97,19.18,7.28,29.3,7.28,17.93,0,25.57-7.28,25.57-24.68v-.53c-5.33,2.66-10.65,3.73-17.75,3.73-23.97,0-39.24-15.8-39.24-40.84,0-31.08,22.55-48.65,62.5-48.65,11.72,0,22.55,1.24,35.69,3.9l-9.36,19.72c-7.28-1.42-.58-.19-6.08-.72v2.84l.35,11.54.18,14.92c.18,3.73.18,7.46.36,11.19v7.46c0,23.44-1.95,34.45-7.81,43.5-8.52,13.32-23.26,19.89-44.21,19.89-10.65,0-19.89-1.6-29.48-5.33v-25.21h0ZM371.79,225.13h-2.84c-5.33-.18-11.54,1.24-15.8,3.9-6.57,3.73-9.94,10.48-9.94,20.07,0,13.67,6.75,21.49,18.82,21.49,3.73,0,6.75-.71,10.3-1.78v-9.41c0-3.2-.18-6.75-.18-10.48l-.18-12.61-.18-9.06v-2.13h0Z"/>
  <path class="st0" d="M455.97,202.58c27.34,0,44.03,17.22,44.03,45.1s-17.4,46.52-45.1,46.52-44.21-17.22-44.21-44.92c0-28.77,17.4-46.7,45.28-46.7ZM455.43,272.18c10.48,0,16.69-8.7,16.69-23.79s-6.04-23.79-16.51-23.79-17.05,8.7-17.05,23.79c0,15.09,6.22,23.79,16.87,23.79Z"/>
</svg>