<?xml version="1.0" encoding="UTF-8"?>
<svg id="Layer_1" xmlns="http://www.w3.org/2000/svg" version="1.1" viewBox="0 0 500 500">
  <!-- Generator: Adobe Illustrator 30.1.0, SVG Export Plug-In . SVG Version: 2.1.1 Build 136)  -->
  <path d="M155.08,305.79v-109.39h5.93v17.21c.7-.76,1.35-1.57,1.94-2.43,4.96-10.28,15.41-16.77,26.82-16.64,13.53-.4,24.52,4.6,30.98,16.64,8.34,15.17,8.82,33.45,1.29,49.04-6.02,13.49-20.89,20.2-36.8,17.73-10.06-.86-19.01-6.76-23.75-15.67v43.51h-6.41ZM161.01,235.09l1.33,12.85c2.34,14.62,10.99,23.26,24.56,24.88,13.14,2.16,25.98-5.26,30.66-17.73,5.28-12.58,4.89-26.82-1.04-39.11-4.98-11.14-16.73-17.63-28.8-15.92-11.31.82-20.86,8.72-23.79,19.67-1.26,5.06-2.24,10.18-2.91,15.35h0ZM348.5,249.96c-1.86,15.93-15.23,28.02-31.27,28.28-24.88,1.25-36.56-15.27-38.42-34.34-1.29-10.36.39-20.86,4.85-30.3,6.36-13.28,20.6-20.91,35.18-18.86,13.86,1.18,25.41,11.09,28.68,24.6,1.26,6,2.19,12.07,2.79,18.18h-65.35c-1.21,17.29,8.08,31.19,21.25,34.54,16.4,4.03,30.42-3.07,35.51-18.66,1.13-4,3.19-4.57,6.83-3.43h-.04ZM284.92,231.98h58.45c-.37-18.42-11.83-31.8-27.39-31.96-17.56-.28-30.3,12.57-31.06,31.96ZM360.58,250.36h5.73c.43,8.61,5.64,16.25,13.49,19.79,9.8,4.41,21.07,4.11,30.62-.81,5.26-2.37,8.49-7.77,8.08-13.53.3-5.57-3.13-10.67-8.4-12.48-6.3-2.34-13.01-3.64-19.43-5.7-6.68-1.9-13.22-4.29-19.55-7.15-10.35-5.05-10.99-24.72.73-30.95,12.19-6.88,27.03-7.11,39.43-.61,7.57,4.18,11.75,12.61,10.5,21.17h-4.91c0-.24-.45-.45-.45-.69-.61-15.66-13.78-20.56-27.91-19.19-4.27.47-8.32,1.77-12.12,3.67-4.68,2.14-7.5,7-7.03,12.12,0,5.12,3.25,9.69,8.08,11.39,6.17,2.26,12.72,3.72,19.11,5.49l15.43,4.03c7.18,2.36,12.16,8.9,12.52,16.44,1.23,8.28-2.99,16.42-10.46,20.2-13.49,7.63-35.71,5.62-45.61-4.03-5.06-5.09-7.89-12.01-7.83-19.19h-.01ZM497.2,220.11h-5.37c0-.73-.28-1.42-.37-1.98-.18-8.3-6.14-15.34-14.3-16.88-7.47-2.14-15.43-1.76-22.66,1.09-5.87,1.68-9.93,7.02-9.98,13.13-.21,6.02,3.84,11.35,9.69,12.76l24.56,6.3c2.66.64,5.27,1.43,7.83,2.38,7.83,2.85,13.15,10.12,13.39,18.43.24,8.33-4.66,15.95-12.34,19.18-11.53,5.24-24.73,5.37-36.36.37-9.69-4.18-15.75-13.95-15.19-24.48h5.25c1.97,9.52,8.51,17.44,17.48,21.19,8.97,3.75,19.21,2.83,27.36-2.45,5-2.6,8.02-7.87,7.76-13.49.25-5.58-3.23-10.64-8.53-12.4-6.3-2.34-13.01-3.59-19.43-5.7-6.72-1.87-13.3-4.24-19.67-7.07-10.1-4.97-10.91-24.48.61-30.7,12.35-7.17,27.56-7.34,40.07-.45,7.19,4.29,11.16,12.42,10.14,20.72l.06.03ZM145.31,276.26c-4.38,1.66-9.3-.22-11.47-4.36l-20.89-28.88-3.03-4.03-24.24,32.96c-2.04,3.97-6.71,5.8-10.91,4.28l31.23-41.89-29.05-37.85c4.31-1.56,9.11.13,11.51,4.03l21.65,29.24,21.77-29.13c2.06-3.9,6.72-5.64,10.83-4.04l-11.27,14.96-15.27,19.88c-1.66,1.48-1.81,4.03-.32,5.7.1.11.21.22.32.32l29.08,38.82h.06ZM277.89,196.08v5.7c-16.14-1.06-30.08,11.17-31.14,27.31-.06.98-.08,1.97-.04,2.95v44.44h-5.78v-80.03h5.7v16.4c6.99-11.96,17.77-16.4,31.31-16.72l-.04-.03ZM0,233.81l2.54-12.57c6.99-24.85,35.47-35.18,55.06-19.79,11.47,9.01,14.34,21.77,13.78,36.16H6.75c-1.04,25.69,17.49,41.2,41.2,33.29,7.81-2.85,13.69-9.34,15.63-17.41,1.25-4.03,3.32-4.73,7.11-3.56-1.28,9.96-7.06,18.79-15.67,23.96-14.42,7.88-32.27,5.6-44.24-5.65-5.77-6.49-9.26-14.69-9.94-23.35,0-1.42-.47-2.75-.81-4.03C.02,238.44,0,236.1,0,233.81h0ZM6.84,232.07h58.45c-.37-18.62-12.12-31.83-27.79-31.96-17.45-.24-29.93,12.68-30.7,31.88l.04.08Z"/>
</svg>