<?xml version="1.0" encoding="UTF-8"?>
<svg id="Layer_1" data-name="Layer 1" xmlns="http://www.w3.org/2000/svg" version="1.1" viewBox="0 0 500 500">
  <defs>
    <style>
      .cls-1 {
        fill: #000;
      }

      .cls-1, .cls-2 {
        stroke-width: 0px;
      }

      .cls-2 {
        fill: #f7df1e;
      }
    </style>
  </defs>
  <rect class="cls-2" width="500" height="500"/>
  <path class="cls-1" d="M335.9,390.6c10.1,16.4,23.2,28.5,46.3,28.5s31.9-9.7,31.9-23.2-12.8-21.8-34.2-31.2l-11.7-5c-33.9-14.4-56.4-32.5-56.4-70.8s26.8-62.1,68.8-62.1,51.3,10.4,66.8,37.6l-36.6,23.5c-8.1-14.4-16.7-20.1-30.2-20.1s-22.5,8.7-22.5,20.1,8.7,19.8,28.9,28.5l11.7,5c39.9,17.1,62.5,34.6,62.5,73.8s-33.2,65.5-77.9,65.5-71.8-20.8-85.6-48l38.2-22.2ZM169.9,394.7c7.4,13.1,14.1,24.2,30.2,24.2s25.2-6,25.2-29.5v-159.8h47v160.4c0,48.7-28.5,70.8-70.2,70.8s-59.4-19.5-70.5-42.9l38.2-23.2Z"/>
</svg>