<?xml version="1.0" encoding="UTF-8"?>
<svg id="Layer_1" data-name="Layer 1" xmlns="http://www.w3.org/2000/svg" version="1.1" xmlns:xlink="http://www.w3.org/1999/xlink" viewBox="0 0 500 500">
  <defs>
    <style>
      .cls-1 {
        fill: url(#linear-gradient);
      }

      .cls-1, .cls-2 {
        fill-rule: evenodd;
        stroke-width: 0px;
      }

      .cls-2 {
        fill: url(#linear-gradient-2);
      }
    </style>
    <linearGradient id="linear-gradient" x1="-620.3" y1="32.1" x2="-267.6" y2="-320.6" gradientTransform="translate(689 110.5) scale(1 -1)" gradientUnits="userSpaceOnUse">
      <stop offset="0" stop-color="#000"/>
      <stop offset="1" stop-color="#fff"/>
    </linearGradient>
    <linearGradient id="linear-gradient-2" x1="-251.7" y1="-304.6" x2="-604.3" y2="48" xlink:href="#linear-gradient"/>
  </defs>
  <path class="cls-1" d="M249.6,372.2c110.6,150.8,218.9-42.1,218.7-158.1C468.1,77,329.1.3,249.5.3,121.7.3,0,105.9,0,250.4s139.5,249.6,249.5,249.6c-24.9-3.6-107.8-21.4-108.9-212.4-.7-129.2,42.1-180.8,108.8-158.1,1.5.6,73.5,29,73.5,121.7s-73.2,121-73.2,121Z"/>
  <path class="cls-2" d="M249.4,129.4c-73.1-25.2-162.6,35-162.6,155.7,0,197,146,214.9,163.7,214.9,127.8,0,249.5-105.6,249.5-250.1S360.5.3,250.5.3c30.5-4.2,164.2,33,164.2,215.7s-99.9,184.1-164.8,156.4c-1.5-.6-73.5-29-73.5-121.7s73-121.3,73-121.3h0Z"/>
</svg>