<?xml version="1.0" encoding="UTF-8"?>
<svg id="Layer_1" xmlns="http://www.w3.org/2000/svg" version="1.1" viewBox="0 0 500 500">
  <!-- Generator: Adobe Illustrator 30.1.0, SVG Export Plug-In . SVG Version: 2.1.1 Build 136)  -->
  <defs>
    <style>
      .st0 {
        fill: none;
      }

      .st1 {
        fill: #800;
      }
    </style>
  </defs>
  <rect class="st0" x="-189" y="-4.63" width="873" height="509.25"/>
  <g>
    <path id="path14" class="st1" d="M210.49,321.87l-20.05-31.14v55.75h38.93l1.34-1.37v-54.38l-20.22,31.14Z"/>
    <g>
      <path id="path26" class="st1" d="M396.94,198.89c-7.61.57-15.23,1.15-22.86,1.2-4.69.03-9.46-.59-14.07-1.54-5.82-1.21-10.7-4.09-13.58-9.72-.43-.83-1.86-1.31-2.92-1.63-3.75-1.11-7.54-2.09-11.33-3.49,1.32-.1,2.64-.29,3.95-.28,3.23.03,6.49-.12,9.67.31,5.81.78,11.57,1.91,17.35,2.92,3.29.57,6.6,1.09,9.87,1.79,6.2,1.33,12.37,2.77,18.55,4.19,4.08.94,8.15,1.91,12.23,2.89M398.42,240.14c-9.49,2.92-19.08,5.55-28.41,8.92-5.84,2.11-11.33,5.23-16.88,8.08-4.84,2.48-6.55,6.72-5.96,11.98.38,3.38.85,6.75,1.15,10.18-2.48-3.66-4.31-7.62-5.39-11.93-.22-.89-.43-1.79-.62-2.68-.73-3.51,1.21-5.69,3.76-7.6,4.95-3.7,10.34-6.62,16.19-8.56,7.3-2.42,14.62-4.84,22.05-6.76,5.24-1.35,10.69-1.87,16.05-2.77.99-.17,1.96-.44,2.94-.66.03.13.07.27.1.4-1.66.46-3.33.89-4.98,1.4M264.63,202.6c-.16.15-.31.3-.47.45-4.23-3.09-8.82-5.38-13.85-6.71-.14.14-.28.27-.42.41,4.33,5.07,8.66,10.15,13.18,15.44-3.03-.99-5.84-1.91-8.66-2.84-.12.14-.24.28-.36.43,3.41,5.62,7.85,10.5,12.08,16.13-7.36-4.18-13.85-8.74-19.91-13.92-8.32-7.12-15.58-15.14-21.01-24.7-2.24-3.94-4.22-8.01-4.64-12.62-.09-1.03-.01-2.12.23-3.12.39-1.63,1.94-2.38,3.53-1.89,8.73,2.71,17.3,5.79,25.33,10.25,7.6,4.22,14.48,9.36,20.39,15.75.24.26.42.57.75,1.04-4.63-2.11-9.03-4.11-13.42-6.12-.15.18-.3.36-.45.55,2.57,3.83,5.15,7.66,7.72,11.48M.02,249.01c-.11.3.23.59.35.88,1.81-.38,3.6-.88,5.43-1.12.48-.06.95-.12,1.43-.19,6.74-2.4,13.65-4.29,20.78-5.29,10.08-1.42,20.53-3.3,30.81-3.25,9.77.05,19.66,1.55,29.22,3.2,2.68.46,5.32,1.08,7.91,1.81,6.99,1.57,13.55,4.37,19.45,8.15.43.2.84.43,1.26.64,8.39,3.95,15.78,9.77,21.62,16.89,1.07,1.18,2.93,2.41,3.88,3.71,2.01,2.37,2.97,4.9,6.32,7.55v-36.18h41.85l19.57,36.11,19.63-36.11h43.13v69.94l7.14-4.71s7.83-20.81,44.1-23.74l41.57-1.34q-6.41-13.27-3.3-17.28c3.06-3.96,26.68-6.56,30.83-9.04l60.66-12.24c.14-.47.3.25.62.15,1.51-.48,3.07-.78,5.23-1.28l13.72-3.34c.89-.5,1.96-.7,2.94-1.04,6.41-2.23,12.02-5.09,15.12-11.92,3.02-6.65,7.07-12.83,8.53-20.15.46-2.31.06-4.33-1.61-5.99-2.02-2.01-4.63-2.88-7.31-3.57-8.76-3.6-17.49-7.28-26.33-10.7-5.43-2.1-11-3.84-16.55-5.63-5.49-1.77-11.01-3.43-16.54-5.05-5.1-1.49-10.22-2.88-15.34-4.27-5-1.36-9.98-2.76-15.01-4-5.86-1.44-11.76-2.72-17.64-4.07-4.47-1.02-8.92-2.11-13.41-3.03-4.89-1-9.81-1.85-14.72-2.72-6.28-1.1-12.54-2.33-18.85-3.19-7.62-1.04-15.29-1.71-22.93-2.61-12.8-1.51-25.62-1.91-38.46-.93-4.55.35-9.04,1.5-13.55,2.28,4.78,2.46,9.51,4.45,14.18,6.57,4.7,2.14,9.07,4.82,13.09,8.06-5.26-2.01-10.38-4.34-15.65-6.22-11.01-3.93-22.21-7.19-33.84-8.77-5.69-.77-11.36-1.51-17.05.1-5.76,1.63-7.39,3.76-7.91,9.55-.86,9.58,2.02,18.47,5.85,27.04,5.71,12.78,14.04,23.67,24.68,32.77,8.15,6.97,17.19,12.47,27.18,16.39,2.85,1.12,5.72,2.16,8.58,3.24-.06.22-.13.44-.19.67-5.48-1.5-11.09-2.62-16.4-4.59-9.38-3.47-17.77-8.77-25.45-15.2-8.57-7.18-15.69-15.58-20.98-25.41-5.62-10.44-8.83-21.59-8.95-33.52"/>
      <path id="path30" class="st1" d="M0,249.43s97.3-93.97,208.5-82.31"/>
    </g>
  </g>
</svg>