<?xml version="1.0" encoding="UTF-8"?>
<svg id="Layer_1" data-name="Layer 1" xmlns="http://www.w3.org/2000/svg" version="1.1" viewBox="0 0 500 500">
  <defs>
    <style>
      .cls-1 {
        fill: #00ed64;
        stroke-width: 0px;
      }
    </style>
  </defs>
  <path class="cls-1" d="M293.4,55.7C272.4,30.8,254.4,5.5,250.7.3c-.4-.4-1-.4-1.4,0-3.7,5.3-21.8,30.5-42.7,55.4-180.1,229.7,28.4,384.8,28.4,384.8l1.7,1.2c1.6,23.9,5.4,58.4,5.4,58.4h15.5s3.9-34.2,5.4-58.4l1.7-1.4c.2.2,208.7-154.8,28.6-384.6ZM249.9,437.2s-9.3-8-11.9-12.1v-.4l11.3-250.1c0-.8,1.2-.8,1.2,0l11.3,250.1v.4c-2.5,4.1-11.9,12.1-11.9,12.1Z"/>
</svg>