<?xml version="1.0" encoding="UTF-8"?>
<svg xmlns="http://www.w3.org/2000/svg" version="1.1" viewBox="0 0 500 500">
  <defs>
    <style>
      .cls-1 {
        fill: #f8981d;
      }

      .cls-2 {
        fill: #5d87a1;
      }
    </style>
  </defs>
  <!-- Generator: Adobe Illustrator 28.7.4, SVG Export Plug-In . SVG Version: 1.2.0 Build 166)  -->
  <g>
    <g id="Layer_1">
      <g>
        <path class="cls-2" d="M120.208,389.563h-19.293c-.682-32.565-2.561-63.18-5.633-91.868h-.171l-29.374,91.868h-14.689l-29.198-91.868h-.168c-2.166,27.543-3.53,58.166-4.097,91.868H0c1.133-40.983,3.982-79.405,8.534-115.269h23.912l27.83,84.698h.171l28.002-84.698h22.879c5.011,42.008,7.971,80.433,8.88,115.269M203.878,304.518c-7.855,42.627-18.219,73.6-31.081,92.934-10.021,14.883-21,22.331-32.956,22.331-3.188,0-7.121-.962-11.781-2.871v-10.278c2.278.328,4.951.514,8.023.514,5.585,0,10.073-1.536,13.496-4.615,4.093-3.75,6.14-7.967,6.14-12.631,0-3.199-1.596-9.738-4.779-19.64l-21.172-65.749h18.954l15.196,49.173c3.415,11.166,4.839,18.961,4.269,23.401,8.31-22.193,14.115-46.392,17.421-72.578h18.271v.007h0Z"/>
        <path class="cls-1" d="M460.687,389.563h-54.803v-115.269h18.435v101.08h36.367v14.189ZM391.539,392.348l-21.19-10.457c1.879-1.543,3.676-3.214,5.294-5.148,9.007-10.58,13.499-26.227,13.499-46.952,0-38.135-14.965-57.211-44.905-57.211-14.681,0-26.134,4.839-34.325,14.521-9,10.588-13.492,26.179-13.492,46.791,0,20.262,3.982,35.126,11.949,44.554,7.288,8.541,18.275,12.817,32.967,12.817,5.48,0,10.509-.671,15.091-2.024l27.588,16.061,7.523-12.951ZM322.893,366.497c-4.668-7.508-7.001-19.565-7.001-36.189,0-29.023,8.817-43.552,26.469-43.552,9.227,0,15.99,3.475,20.314,10.409,4.66,7.52,7.005,19.468,7.005,35.86,0,29.262-8.824,43.895-26.466,43.895-9.231.004-15.994-3.46-20.322-10.424M288.386,357.613c0,9.775-3.586,17.794-10.752,24.076-7.173,6.256-16.791,9.391-28.844,9.391-11.274,0-22.205-3.601-32.785-10.767l4.955-9.898c9.104,4.559,17.347,6.826,24.747,6.826,6.945,0,12.374-1.54,16.31-4.593,3.933-3.064,6.278-7.363,6.278-12.799,0-6.848-4.776-12.702-13.537-17.604-8.079-4.436-24.236-13.712-24.236-13.712-8.757-6.382-13.142-13.235-13.142-24.523,0-9.343,3.27-16.885,9.812-22.622,6.55-5.76,15.002-8.631,25.362-8.631,10.7,0,20.426,2.867,29.187,8.541l-4.444,9.902c-7.493-3.184-14.89-4.776-22.186-4.776-5.909,0-10.472,1.42-13.645,4.272-3.199,2.841-5.171,6.476-5.171,10.934,0,6.815,4.876,12.743,13.876,17.742,8.187,4.444,24.747,13.88,24.747,13.88,8.981,6.371,13.466,13.16,13.466,24.359"/>
        <path class="cls-2" d="M483.831,235.686c-11.147-.283-19.777.839-27.021,3.903-2.091.835-5.417.835-5.708,3.478,1.13,1.118,1.26,2.923,2.241,4.466,1.67,2.785,4.582,6.532,7.24,8.485,2.919,2.237,5.849,4.451,8.921,6.401,5.417,3.352,11.557,5.301,16.836,8.642,3.076,1.942,6.133,4.455,9.212,6.547,1.514,1.115,2.483,2.923,4.448,3.62v-.425c-.984-1.253-1.264-3.064-2.229-4.459l-4.183-4.034c-4.041-5.428-9.063-10.166-14.48-14.059-4.459-3.072-14.211-7.247-16.02-12.385l-.283-.283c3.065-.287,6.699-1.398,9.611-2.252,4.738-1.249,9.059-.966,13.921-2.214,2.237-.559,4.455-1.26,6.699-1.95v-1.256c-2.52-2.509-4.317-5.842-6.968-8.213-7.091-6.125-14.905-12.116-22.98-17.131-4.325-2.792-9.887-4.589-14.491-6.964-1.659-.839-4.455-1.253-5.432-2.647-2.498-3.064-3.903-7.098-5.715-10.726-4.026-7.654-7.937-16.146-11.412-24.24-2.513-5.428-4.041-10.849-7.106-15.87-14.353-23.673-29.94-38.012-53.897-52.085-5.148-2.93-11.274-4.179-17.817-5.715l-10.45-.552c-2.229-.977-4.463-3.627-6.409-4.88-7.948-5.011-28.412-15.87-34.257-1.532-3.765,9.063,5.57,17.973,8.776,22.57,2.367,3.191,5.436,6.822,7.091,10.446.98,2.367,1.256,4.88,2.237,7.382,2.229,6.129,4.313,12.948,7.244,18.667,1.529,2.915,3.195,5.98,5.148,8.619,1.118,1.543,3.064,2.226,3.489,4.742-1.942,2.774-2.095,6.96-3.21,10.442-5.011,15.736-3.053,35.23,4.049,46.795,2.222,3.482,7.523,11.147,14.614,8.209,6.278-2.505,4.888-10.442,6.692-17.403.414-1.681.142-2.785.977-3.888v.272c1.942,3.896,3.903,7.65,5.704,11.557,4.321,6.819,11.844,13.924,18.111,18.648,3.337,2.52,5.98,6.83,10.159,8.37v-.418h-.276c-.846-1.249-2.084-1.808-3.195-2.777-2.513-2.509-5.294-5.574-7.244-8.355-5.838-7.803-11.005-16.441-15.591-25.355-2.244-4.325-4.179-9.052-5.987-13.369-.843-1.666-.843-4.179-2.241-5.018-2.095,3.061-5.148,5.711-6.677,9.462-2.651,5.998-2.927,13.376-3.911,21.049l-.548.268c-4.436-1.115-5.98-5.704-7.665-9.6-4.172-9.894-4.873-25.776-1.253-37.191.969-2.919,5.163-12.113,3.489-14.894-.839-2.666-3.627-4.183-5.156-6.282-1.797-2.639-3.765-5.98-5.018-8.91-3.34-7.795-5.022-16.433-8.619-24.225-1.681-3.631-4.6-7.389-6.964-10.733-2.654-3.758-5.574-6.405-7.672-10.86-.693-1.532-1.666-4.038-.552-5.704.272-1.118.839-1.536,1.95-1.816,1.804-1.525,6.96.414,8.768,1.253,5.163,2.088,9.481,4.038,13.79,6.96,1.95,1.398,4.041,4.045,6.543,4.742h2.93c4.448.969,9.462.268,13.649,1.529,7.378,2.371,14.062,5.849,20.057,9.604,18.242,11.568,33.284,28.005,43.44,47.638,1.666,3.199,2.375,6.129,3.896,9.466,2.934,6.83,6.561,13.794,9.473,20.478,2.927,6.543,5.715,13.224,9.894,18.659,2.084,2.923,10.457,4.455,14.211,5.987,2.777,1.249,7.102,2.36,9.607,3.892,4.738,2.919,9.458,6.271,13.913,9.481,2.218,1.67,9.19,5.152,9.604,7.941M341.769,114.657c-1.923-.02-3.84.216-5.7.701v.28h.268c1.122,2.226,3.072,3.769,4.463,5.711,1.122,2.233,2.095,4.448,3.195,6.677l.268-.276c1.965-1.391,2.941-3.62,2.941-6.964-.846-.984-.977-1.946-1.681-2.923-.82-1.394-2.628-2.088-3.754-3.206"/>
      </g>
    </g>
  </g>
</svg>