<?xml version="1.0" encoding="UTF-8"?>
<svg id="Layer_1" data-name="Layer 1" xmlns="http://www.w3.org/2000/svg" version="1.1" xmlns:xlink="http://www.w3.org/1999/xlink" viewBox="0 0 500 500">
  <defs>
    <style>
      .cls-1 {
        fill: url(#linear-gradient);
      }

      .cls-1, .cls-2, .cls-3, .cls-4, .cls-5, .cls-6, .cls-7, .cls-8, .cls-9 {
        stroke-width: 0px;
      }

      .cls-2 {
        fill: none;
      }

      .cls-3 {
        fill: url(#linear-gradient-2);
      }

      .cls-4 {
        fill: url(#linear-gradient-3);
      }

      .cls-10 {
        clip-path: url(#clippath);
      }

      .cls-5 {
        fill: #fff;
      }

      .cls-11 {
        mask: url(#mask);
      }

      .cls-6, .cls-9 {
        fill: #5fa04e;
      }

      .cls-7 {
        fill: url(#linear-gradient-4);
      }

      .cls-8 {
        fill: #333;
      }

      .cls-8, .cls-9 {
        fill-rule: evenodd;
      }
    </style>
    <clipPath id="clippath">
      <rect class="cls-2" y="96.9" width="500" height="306.2"/>
    </clipPath>
    <mask id="mask" x="0" y="96.9" width="500" height="306.2" maskUnits="userSpaceOnUse">
      <g id="mask0_337_7900" data-name="mask0 337 7900">
        <path class="cls-5" d="M500,96.9H0v306.2h500V96.9Z"/>
      </g>
    </mask>
    <linearGradient id="linear-gradient" x1="220.7" y1="296.7" x2="174.1" y2="201.6" gradientTransform="translate(0 462.2) scale(.9 -.9)" gradientUnits="userSpaceOnUse">
      <stop offset="0" stop-color="#3f873f"/>
      <stop offset=".3" stop-color="#3f8b3d"/>
      <stop offset=".6" stop-color="#3e9638"/>
      <stop offset=".9" stop-color="#3da92e"/>
      <stop offset="1" stop-color="#3dae2b"/>
    </linearGradient>
    <linearGradient id="linear-gradient-2" x1="191.9" y1="247" x2="322.5" y2="343.5" gradientTransform="translate(0 462.2) scale(.9 -.9)" gradientUnits="userSpaceOnUse">
      <stop offset=".1" stop-color="#3f873f"/>
      <stop offset=".4" stop-color="#52a044"/>
      <stop offset=".7" stop-color="#64b749"/>
      <stop offset=".9" stop-color="#6abf4b"/>
    </linearGradient>
    <linearGradient id="linear-gradient-3" x1="140.1" y1="329.5" x2="259.3" y2="329.5" gradientTransform="translate(0 462.2) scale(.9 -.9)" gradientUnits="userSpaceOnUse">
      <stop offset="0" stop-color="#6abf4b"/>
      <stop offset=".3" stop-color="#64b749"/>
      <stop offset=".6" stop-color="#52a044"/>
      <stop offset=".9" stop-color="#3f873f"/>
    </linearGradient>
    <linearGradient id="linear-gradient-4" x1="140.1" y1="253.9" x2="259.3" y2="253.9" xlink:href="#linear-gradient-3"/>
  </defs>
  <g class="cls-10">
    <g class="cls-11">
      <g>
        <path class="cls-6" d="M247.1,403.1c-1.7,0-3.3-.5-4.7-1.2l-15-8.9c-2.3-1.2-1.1-1.7-.5-1.9,3.1-1,3.6-1.2,6.8-3.1.3-.2.8-.1,1.1.1l11.5,6.9c.5.2,1,.2,1.4,0l45.1-26.1c.5-.2.7-.7.7-1.2v-52.1c0-.6-.2-1-.7-1.2l-45.1-26c-.5-.2-1-.2-1.4,0l-45.1,26c-.5.2-.7.8-.7,1.2v52.1c0,.5.2,1,.7,1.2l12.3,7.1c6.7,3.4,10.8-.6,10.8-4.5v-51.4c0-.7.6-1.4,1.4-1.4h5.8c.7,0,1.4.6,1.4,1.4v51.4c0,8.9-4.9,14.1-13.3,14.1s-4.6,0-10.4-2.8l-11.9-6.8c-2.9-1.7-4.7-4.9-4.7-8.3v-52.1c0-3.4,1.8-6.5,4.7-8.3l45.1-26.1c2.8-1.6,6.7-1.6,9.5,0l45.1,26.1c2.9,1.7,4.7,4.9,4.7,8.3v52.1c0,3.4-1.8,6.6-4.7,8.3l-45.1,26.1c-1.4.6-3.1,1-4.7,1h0Z"/>
        <path class="cls-6" d="M261.1,367.3c-19.8,0-23.8-9-23.8-16.7s.6-1.4,1.4-1.4h5.9c.7,0,1.2.5,1.2,1.1.9,6,3.5,8.9,15.5,8.9s13.6-2.1,13.6-7.2-1.1-5.1-15.9-6.6c-12.3-1.2-20-4-20-13.8s7.7-14.6,20.6-14.6,21.6,5,22.5,15.8c0,.3-.1.7-.3,1-.2.2-.6.5-.9.5h-6c-.6,0-1.1-.4-1.2-1-1.4-6.2-4.9-8.3-14.1-8.3s-11.6,3.6-11.6,6.3,1.5,4.3,15.5,6.1c13.9,1.8,20.5,4.4,20.5,14.1s-8.3,15.6-22.5,15.6h0Z"/>
        <path class="cls-8" d="M107.3,199.3c0-2.1-1.1-4-2.9-5l-47.8-27.7c-.8-.4-1.7-.7-2.6-.8h-.4c-.9,0-1.8.3-2.6.8L2.9,194.2c-1.8,1-3,3-2.9,5.1v74.2c.1,1,.7,2,1.6,2.5.9.6,2,.6,2.8,0l28.5-16.3c1.8-1,2.9-2.9,2.9-5v-34.7c0-2,1.1-4,2.9-5l12.1-7c.9-.6,1.9-.8,2.9-.8s2,.2,2.8.8l12.1,7c1.8,1,2.9,2.9,2.9,5v34.7c0,2,1.1,4,2.9,5l28.3,16.3c.9.6,2,.6,2.9,0,.9-.5,1.5-1.5,1.5-2.5v-74.2ZM337.6,97.2c-.9-.5-2-.5-2.8,0-.9.6-1.5,1.5-1.5,2.5v73.5c0,.7-.3,1.4-1,1.8-.6.3-1.4.3-2,0l-12-6.9c-1.8-1-4-1-5.8,0l-47.9,27.7c-1.8,1-2.9,2.9-2.9,5v55.3c0,2,1.1,4,2.9,5l47.9,27.7c1.8,1,4,1,5.8,0l47.9-27.7c1.8-1,2.9-2.9,2.9-5V118.3c0-2.1-1.1-4-2.9-5.1l-28.6-15.9ZM333.2,237.8c0,.6-.2,1-.7,1.2l-16.4,9.5c-.5.2-1,.2-1.5,0l-16.4-9.5c-.5-.2-.7-.8-.7-1.2v-19c0-.6.2-1,.7-1.2l16.4-9.5c.5-.2,1-.2,1.5,0l16.4,9.5c.5.2.7.8.7,1.2v19h0ZM497.1,218.4c1.8-1,2.8-2.9,2.8-5v-13.5c0-2-1.1-3.9-2.8-5l-47.6-27.6c-1.8-1-4-1-5.8,0l-47.9,27.7c-1.8,1-2.9,2.9-2.9,5v55.3c0,2,1.1,4,2.9,5l47.6,27.1c1.8,1,4,1,5.7,0l28.8-16.1c.9-.5,1.5-1.5,1.5-2.5s-.6-2-1.5-2.5l-48.1-27.7c-.9-.6-1.5-1.5-1.5-2.5v-17.3c0-1,.6-2,1.5-2.5l15-8.6c.9-.6,2-.6,2.9,0l15,8.6c.9.6,1.5,1.5,1.5,2.5v13.6c0,1,.6,2,1.5,2.5.9.6,2,.6,2.9,0,0,0,28.5-16.6,28.5-16.6Z"/>
        <path class="cls-9" d="M445.9,215.8c.3-.2.8-.2,1.1,0l9.2,5.3c.3.2.6.6.6,1v10.6c0,.4-.2.8-.6,1l-9.2,5.3c-.3.2-.8.2-1.1,0l-9.2-5.3c-.4-.2-.6-.6-.6-1v-10.6c0-.5.2-.8.6-1l9.2-5.3h0Z"/>
        <path class="cls-1" d="M187.4,167.6c-1.8-1-4-1-5.8,0l-47.6,27.5c-1.8,1-2.8,2.9-2.8,5v55.1c0,2,1.1,4,2.8,5l47.6,27.5c1.8,1,4,1,5.8,0l47.6-27.5c1.8-1,2.8-2.9,2.8-5v-55.1c0-2-1.1-3.9-2.8-5l-47.6-27.5h0Z"/>
        <path class="cls-3" d="M235.1,195.1l-47.8-27.5c-.5-.2-1-.4-1.5-.6l-53.5,91.6c.5.6,1.2,1.4,1.7,1.7l47.5,27.2c1.4.8,2.9,1,4.4.6l50.3-92c-.3-.4-.8-.8-1.2-1Z"/>
        <path class="cls-4" d="M180,157.6l-.7.3h.9s-.2-.3-.2-.3Z"/>
        <path class="cls-7" d="M235,260.1c1.4-.8,2.6-2.3,2.6-4.1l-52.1-89.1c-1.4-.2-2.8-.1-4.1.7l-47.5,27.4,51.2,93.4c.7-.1,1.5-.4,2.1-.7l47.7-27.6h0Z"/>
      </g>
    </g>
  </g>
</svg>