<?xml version="1.0" encoding="UTF-8"?>
<svg id="Layer_1" xmlns="http://www.w3.org/2000/svg" version="1.1" viewBox="0 0 500 500">
  <!-- Generator: Adobe Illustrator 30.1.0, SVG Export Plug-In . SVG Version: 2.1.1 Build 136)  -->
  <defs>
    <style>
      .st0 {
        fill: #336791;
      }

      .st1 {
        fill: #fff;
      }

      .st2 {
        fill: none;
        stroke: #fff;
        stroke-linecap: round;
        stroke-linejoin: round;
        stroke-width: 3px;
      }
    </style>
  </defs>
  <g id="Layer_x5F_3">
    <g>
      <path d="M372.31,365.03c3.21-26.73,2.25-30.65,22.16-26.32l5.06.44c15.31.7,35.34-2.46,47.11-7.93,25.33-11.75,40.35-31.38,15.37-26.22-56.97,11.75-60.89-7.54-60.89-7.54,60.16-89.26,85.31-202.58,63.6-230.31-59.21-75.66-161.7-39.88-163.41-38.95l-.55.1c-11.26-2.34-23.86-3.73-38.01-3.96-25.78-.42-45.35,6.76-60.19,18.02,0,0-182.84-75.33-174.33,94.73,1.81,36.18,51.85,273.74,111.54,201.98,21.82-26.24,42.9-48.42,42.9-48.42,10.47,6.96,23,10.5,36.15,9.23l1.02-.87c-.32,3.26-.18,6.44.41,10.22-15.37,17.18-10.86,20.2-41.6,26.52-31.1,6.41-12.83,17.82-.9,20.81,14.46,3.62,47.92,8.74,70.53-22.91l-.9,3.61c6.03,4.83,5.62,34.68,6.48,56.02.86,21.33,2.28,41.24,6.63,52.98,4.35,11.74,9.48,41.97,49.88,33.31,33.77-7.24,59.58-17.65,61.94-114.53"/>
      <path d="M297.23,500c-17.67,0-29.16-6.82-36.14-13.41-10.55-9.95-14.75-22.82-17.26-30.51-.41-1.26-.8-2.45-1.1-3.26-5.06-13.66-6.78-33.39-7.8-58.8-.15-3.82-.26-7.77-.38-11.95-.09-3.12-.2-7.33-.38-11.76-17.44,8.63-38.21,10.31-61.02,4.61-10.07-2.52-20.55-7.79-26.27-15.97-17.16,15.36-33.55,13.35-42.44,10.38-15.6-5.2-29.59-19.87-42.77-44.85-9.43-17.86-18.55-41.15-27.12-69.21-14.92-48.89-24.4-100.36-25.24-117.25-2.64-52.73,11.53-90.42,42.1-112.02,48.47-34.24,122.11-13.87,148.58-4.79,17.96-10.9,39.11-16.21,63.06-15.82,12.88.21,25.14,1.34,36.52,3.38C311.32,5.07,334.8-.3,361.68.01c49.23.59,90.02,19.77,117.96,55.46,19.85,25.36,9.97,78.86,2.32,108.49-10.88,42.13-30.02,86.97-53.53,125.88,6.39.15,15.92-.54,29.75-3.4,25.17-5.2,32.49,8.2,34.47,14.2,8.2,24.84-30.26,44.14-38.05,47.75-14.09,6.55-37.1,10.52-55.94,9.67l-.8-.05-5.6-.49c-.19,1.56-.38,3.2-.56,4.77-.15,1.3-.31,2.67-.48,4.1-1.27,48.97-8.24,79.96-22.6,100.4-14.99,21.34-35.03,27.16-54.28,31.28-6.26,1.34-11.95,1.92-17.12,1.92ZM259.21,322.46c11.31,9.05,12.31,26.3,13.21,58.56.11,4.06.22,7.89.36,11.48.44,10.87,1.46,36.33,5.47,47.16.56,1.51,1.06,3.04,1.59,4.67,4.41,13.5,6.83,20.94,26.56,16.71,16.26-3.48,24.62-6.62,31.22-16.02,9.62-13.69,14.77-40.01,15.75-80.46l18.92.46-18.79-2.26c.21-1.71.39-3.33.57-4.86,1.84-15.83,3.17-27.27,13.63-34.74,9.51-6.8,20.63-5.12,28.67-3.43-.19-.12-.37-.24-.55-.36-9.99-6.6-12.61-14.89-13.27-18.16l-1.58-7.77,4.43-6.58c26.46-39.26,48.28-87.51,59.87-132.38,12.91-49.99,7.45-71.93,4.52-75.68-48.37-61.81-132.12-36.17-140.67-33.32l-1.45.78-7.14,1.31-3.63-.75c-10.44-2.17-22.04-3.37-34.47-3.57-19.61-.33-35.44,4.31-48.44,14.17l-8.64,6.55-10.02-4.13c-22.23-9.1-87.56-27.36-122.13-2.88-19.24,13.63-28.02,40.26-26.07,79.15.64,12.79,9.32,61.18,23.64,108.08,19.84,65.01,38.03,86.65,45.64,89.19,1.97.66,5.97-3.07,8.79-6.46,21.96-26.41,42.85-48.43,43.73-49.36l10.96-11.53,13.25,8.8c5.7,3.79,11.99,5.91,18.45,6.27l31.65-26.98-4.56,46.69c-.16,1.6-.07,3.23.27,5.47l1.37,8.85-5.97,6.68c-.32.35-.62.7-.92,1.04l18.57,8.57,7.2-9ZM186.81,314.04c-.14.15-.27.3-.41.45.3-.09.61-.17.9-.26l-.49-.19Z"/>
    </g>
    <path class="st0" d="M462.02,305c-56.98,11.75-60.9-7.54-60.9-7.54,60.16-89.27,85.31-202.58,63.61-230.32-59.21-75.65-161.7-39.87-163.41-38.94l-.55.1c-11.26-2.34-23.86-3.73-38.02-3.96-25.78-.42-45.34,6.76-60.18,18.01,0,0-182.84-75.32-174.34,94.73,1.81,36.18,51.85,273.74,111.54,201.98,21.82-26.24,42.9-48.42,42.9-48.42,10.47,6.96,23,10.5,36.14,9.23l1.02-.87c-.32,3.26-.17,6.44.41,10.22-15.38,17.18-10.86,20.2-41.6,26.52-31.1,6.41-12.83,17.82-.9,20.81,14.46,3.62,47.92,8.74,70.53-22.91l-.9,3.61c6.03,4.83,10.26,31.39,9.55,55.47-.71,24.08-1.18,40.61,3.56,53.53,4.75,12.91,9.48,41.97,49.89,33.31,33.77-7.24,51.26-25.99,53.7-57.27,1.73-22.24,5.64-18.95,5.88-38.83l3.14-9.41c3.62-30.14.57-39.87,21.38-35.35l5.06.44c15.31.7,35.35-2.46,47.11-7.93,25.33-11.75,40.35-31.38,15.37-26.22h0Z"/>
    <path class="st1" d="M299.29,488.36c-33.56,0-44.19-26.57-48.54-37.45-6.38-15.96-7.75-77.96-6.33-128.82.1-3.48,3.01-6.21,6.49-6.13,3.49.1,6.23,3,6.13,6.49-1.64,58.71.69,111.92,5.43,123.78,7.42,18.54,18.67,34.75,50.47,27.94,30.16-6.47,41.45-17.9,46.48-47.06,3.95-22.87,11.43-85.4,12.39-98.27.26-3.48,3.29-6.08,6.77-5.82,3.48.26,6.08,3.29,5.82,6.77-.98,13.03-8.55,76.33-12.54,99.47-5.9,34.21-21.15,49.73-56.28,57.26-5.96,1.28-11.38,1.85-16.3,1.85Z"/>
    <path class="st1" d="M116.62,358.08c-3.19,0-6.08-.58-8.58-1.42-21.81-7.27-42.6-42.86-61.81-105.77-14.63-47.93-23.9-97.95-24.71-114.2-2.41-48.14,9.98-82.19,36.82-101.2,53.13-37.64,142.55-1.78,146.33-.23,3.23,1.32,4.77,5,3.46,8.23-1.32,3.23-5,4.78-8.23,3.46-1.01-.41-86.86-34.76-134.28-1.14-23.07,16.36-33.66,46.72-31.48,90.25.69,13.71,9.35,62.58,24.17,111.14,17.18,56.3,36.77,91.83,53.72,97.48,2.68.9,10.86,3.62,22.49-10.36,21.7-26.11,41.64-46.95,41.83-47.15,2.41-2.52,6.41-2.6,8.93-.19,2.52,2.41,2.6,6.41.19,8.93-.2.2-19.84,20.74-41.24,46.49-10.09,12.13-19.75,15.69-27.61,15.69Z"/>
    <path class="st1" d="M400.71,303.07c-1.21,0-2.44-.35-3.52-1.08-2.89-1.95-3.66-5.87-1.71-8.76,60.87-90.32,82.19-199.49,63.87-222.9-23.06-29.46-55.62-44.85-96.78-45.73-30.52-.66-54.66,7.13-58.6,8.48-.31.16-.64.29-.98.4-3.85,1.21-6.8-.9-7.91-3.36-1.31-2.91-.23-6.36,2.5-8.01.18-.11.75-.35,1.66-.69-.01,0-.03,0-.04.01.01,0,.02,0,.04-.01,6.56-2.42,31.13-9.81,61.65-9.48,45.38.48,82.87,17.98,108.4,50.61,12.06,15.41,12.07,50.96.04,97.55-12.28,47.54-35.38,98.64-63.38,140.19-1.22,1.81-3.21,2.79-5.24,2.79Z"/>
    <path class="st1" d="M403.82,344.85c-10.34,0-19.6-1.46-25.15-4.78-5.64-3.38-6.72-7.97-6.86-10.4-1.57-27.63,13.86-32.15,21.44-34.27-1.06-1.66-2.64-3.63-4.37-5.78-4.5-5.62-10.66-13.31-15.4-24.81-.75-1.82-3.09-6.01-5.79-10.86-14.62-26.22-45.05-80.79-25.55-108.66,9.05-12.93,27.12-17.99,53.77-15.08-3.29-10.13-12.04-30.17-28.77-50.01-18.93-22.45-52.5-49.38-104.89-50.24-26.62-.44-48.48,7.75-64.9,24.33-36.73,37.09-35.4,104.18-35.38,104.85.09,3.49-2.66,6.39-6.14,6.48-3.53.12-6.39-2.66-6.48-6.14-.08-2.97-1.45-73.19,39.03-114.07,18.93-19.12,43.85-28.56,74.08-28.07,56.45.93,92.78,29.62,113.32,53.53,22.39,26.06,33.36,54.78,34.26,64.36.65,6.96-4.31,8.35-5.32,8.55l-2.28.05c-26.17-4.19-42.98-1.26-49.95,8.7-14.97,21.39,13.9,73.17,26.23,95.28,3.14,5.63,5.4,9.69,6.44,12.19,4.06,9.83,9.34,16.44,13.58,21.74,3.72,4.64,6.94,8.67,8.08,13.37.51.91,8.02,12.41,53.53,3.01,11.19-2.31,17.89-.36,19.92,5.79,4.03,12.19-18.75,26.49-31.37,32.35-11.35,5.27-29.44,8.6-45.08,8.6ZM384.4,328.7c1.3,1.46,8.4,4.05,23.43,3.43,13.29-.55,27.32-3.43,35.75-7.34,10.55-4.9,18.23-10.82,22.01-14.79-.77.11-1.67.26-2.69.47-28.8,5.95-49.16,5.16-60.51-2.33-.85-.56-1.61-1.14-2.29-1.71-1.27.51-2.46.84-3.29,1.08-6.56,1.84-13.34,3.75-12.41,21.19ZM406.83,295.17c.02.07.03.14.05.21,0,.03.01.07.02.1,0-.03-.02-.15-.07-.32Z"/>
    <path class="st1" d="M198.11,364.86c-7.11,0-14.56-.96-22.29-2.89-7.92-1.98-21.28-7.93-21.07-17.67.23-10.91,16.21-14.2,22.23-15.44,21.99-4.53,23.59-6.56,30.31-15.09,1.99-2.53,4.48-5.68,7.86-9.46h0c10.94-12.25,20.88-8.13,25.66-6.15,6.93,2.87,12.72,9.83,15.1,18.14,2.14,7.49,1.12,14.7-2.88,20.3-13.28,18.6-32.33,28.26-54.91,28.26ZM168.25,344.83c1.91,1.56,6.01,3.73,10.62,4.88,19.06,4.77,45.61,5.09,63.86-20.46,2.32-3.24,1.63-7.34,1.01-9.49-1.28-4.49-4.49-8.58-7.79-9.95-4.01-1.66-6.44-2.66-11.41,2.9,0,0,0,0,0,0-3.12,3.48-5.36,6.33-7.35,8.85-8.49,10.78-12.38,14.44-37.68,19.65-6.53,1.35-9.76,2.74-11.27,3.61ZM219.84,308.51h0,0Z"/>
    <path class="st1" d="M218.83,314.52c-3.06,0-5.75-2.23-6.23-5.36-.17-1.14-.28-2.29-.34-3.45-16.65-.25-32.71-7.37-44.9-20.09-15.36-16.02-22.34-38.22-19.17-60.9,3.46-24.73,2.16-46.55,1.47-58.27-.19-3.25-.33-5.6-.32-7.22.01-2.03.05-7.41,18.25-16.64,6.5-3.3,19.54-9.05,33.77-10.52,23.51-2.43,39.01,8.04,43.65,29.48,12.57,58.15,1,83.86-7.45,102.63-1.58,3.51-3.07,6.82-4.26,10.03l-1.05,2.83c-4.48,12.02-8.36,22.4-7.16,30.2.53,3.45-1.84,6.67-5.28,7.2-.32.05-.65.07-.97.07ZM162,160.98c.05,1.24.15,2.86.26,4.74.72,12.16,2.06,34.79-1.57,60.76-2.63,18.83,3.12,37.2,15.78,50.41,10.01,10.44,23.19,16.21,36.73,16.21.15,0,.3,0,.45,0,1.5-6.4,4.03-13.16,6.75-20.45l1.05-2.81c1.34-3.61,2.92-7.11,4.58-10.81,8.16-18.13,18.32-40.7,6.62-94.78-2.34-10.82-8.03-17.08-17.4-19.12-19.84-4.33-47.82,10.82-53.26,15.86ZM161.32,161.71s0,0,0,0h0Z"/>
    <g>
      <path class="st1" d="M201.62,158.27c-.33,2.31,4.23,8.47,10.17,9.3,5.93.83,11-3.99,11.33-6.3.32-2.31-4.23-4.85-10.17-5.68-5.93-.83-11.01.38-11.32,2.68h0Z"/>
      <path class="st1" d="M213.14,169.77c-.54,0-1.09-.04-1.65-.11-3.67-.51-7.37-2.82-9.91-6.19-.89-1.18-2.33-3.45-2.05-5.48.1-.75.49-1.85,1.75-2.8,2.3-1.74,6.88-2.39,11.95-1.68,6.18.86,12.56,3.75,11.96,8.06-.43,3.1-5.66,8.2-12.05,8.21ZM203.72,158.62c.18,1.49,3.7,6.21,8.36,6.86,4.72.66,8.56-3.21,8.93-4.43-.34-.73-3.14-2.65-8.36-3.38-5.17-.72-8.37.34-8.94.95Z"/>
    </g>
    <g>
      <path class="st1" d="M382.21,153.56c.32,2.31-4.23,8.47-10.17,9.3-5.93.83-11.01-3.99-11.33-6.3-.31-2.31,4.24-4.85,10.17-5.68s11.01.38,11.33,2.68h0Z"/>
      <path class="st1" d="M370.7,164c-5.78,0-10.66-4.6-11.04-7.3-.47-3.43,5.21-6.05,11.07-6.87,5.86-.82,12.04.15,12.52,3.58h0c.22,1.54-.97,3.93-3.01,6.08-1.35,1.42-4.19,3.87-8.05,4.41-.5.07-.99.1-1.48.1ZM374.57,151.67c-1.08,0-2.27.08-3.54.26-5.92.82-9.45,3.21-9.27,4.5.23,1.66,4.66,6.16,10.15,5.4,3.23-.45,5.66-2.56,6.82-3.77,1.82-1.91,2.54-3.72,2.46-4.33h0c-.14-1-2.66-2.04-6.6-2.04Z"/>
    </g>
    <path class="st1" d="M390.76,285.88c-1.21,0-2.43-.35-3.51-1.07-2.9-1.94-3.67-5.86-1.73-8.76,13.95-20.83,11.4-42.05,8.93-62.56-1.05-8.72-2.13-17.73-1.85-26.37.28-8.89,1.41-16.24,2.51-23.34,1.3-8.43,2.53-16.4,2.01-25.86-.19-3.48,2.48-6.46,5.96-6.64,3.48-.18,6.46,2.48,6.64,5.96.58,10.77-.8,19.77-2.14,28.46-1.04,6.73-2.11,13.69-2.37,21.82-.25,7.68.73,15.83,1.77,24.46,2.61,21.74,5.57,46.38-10.98,71.1-1.22,1.82-3.22,2.8-5.25,2.8Z"/>
    <path class="st2" d="M6.2,65.99"/>
  </g>
</svg>