<?xml version="1.0" encoding="UTF-8"?>
<svg id="Layer_1" xmlns="http://www.w3.org/2000/svg" version="1.1" viewBox="0 0 500 500">
  <!-- Generator: Adobe Illustrator 30.1.0, SVG Export Plug-In . SVG Version: 2.1.1 Build 136)  -->
  <defs>
    <style>
      .st0 {
        fill: #090a15;
        fill-rule: evenodd;
      }
    </style>
  </defs>
  <path class="st0" d="M49.89,316.85c-4.97,8.1-4.89,18.32.2,26.34l92.07,145.23c5.98,9.43,17.49,13.72,28.18,10.52l265.69-79.71c14.5-4.35,21.79-20.52,15.46-34.27L280.69,14.48c-8.33-18.07-33.44-19.55-43.84-2.59L49.89,316.85ZM276.15,99.17c-3.63-8.4-15.92-7.11-17.72,1.87l-65.76,327.41c-1.39,6.9,5.08,12.8,11.82,10.79l183.57-54.8c5.36-1.6,8.12-7.52,5.9-12.65l-117.81-272.61Z"/>
</svg>