<?xml version="1.0" encoding="UTF-8"?>
<svg id="Layer_1" xmlns="http://www.w3.org/2000/svg" version="1.1" xmlns:xlink="http://www.w3.org/1999/xlink" viewBox="0 0 500 500">
  <!-- Generator: Adobe Illustrator 30.1.0, SVG Export Plug-In . SVG Version: 2.1.1 Build 136)  -->
  <defs>
    <style>
      .st0 {
        fill: url(#linear-gradient1);
      }

      .st1 {
        fill: url(#radial-gradient);
        isolation: isolate;
        opacity: .44;
      }

      .st2 {
        fill: url(#linear-gradient);
      }
    </style>
    <linearGradient id="linear-gradient" x1="-88.75" y1="359.31" x2="316.01" y2="11.07" gradientTransform="translate(83.44 215.96) scale(.56 -.57)" gradientUnits="userSpaceOnUse">
      <stop offset="0" stop-color="#5a9fd4"/>
      <stop offset="1" stop-color="#306998"/>
    </linearGradient>
    <linearGradient id="linear-gradient1" x1="472.49" y1="-199.7" x2="327.96" y2="4.8" gradientTransform="translate(83.44 215.96) scale(.56 -.57)" gradientUnits="userSpaceOnUse">
      <stop offset="0" stop-color="#ffd43b"/>
      <stop offset="1" stop-color="#ffe873"/>
    </linearGradient>
    <radialGradient id="radial-gradient" cx="-1711.55" cy="531.1" fx="-1711.55" fy="531.1" r="107.81" gradientTransform="translate(811.01 63.45) rotate(-90) scale(.24 -1.05)" gradientUnits="userSpaceOnUse">
      <stop offset="0" stop-color="#b8b8b8" stop-opacity=".5"/>
      <stop offset="1" stop-color="#7f7f7f" stop-opacity="0"/>
    </radialGradient>
  </defs>
  <path id="path1948" class="st2" d="M247.54,0c-17.02.08-33.27,1.53-47.57,4.06-42.13,7.44-49.78,23.02-49.78,51.75v37.94h99.55v12.65H112.84c-28.93,0-54.27,17.39-62.19,50.47-9.14,37.92-9.55,61.58,0,101.17,7.08,29.47,23.98,50.47,52.91,50.47h34.23v-45.48c0-32.86,28.43-61.84,62.19-61.84h99.43c27.68,0,49.78-22.79,49.78-50.59V55.81c0-26.98-22.76-47.24-49.78-51.75C282.3,1.22,264.56-.08,247.54,0ZM193.71,30.52c10.28,0,18.68,8.53,18.68,19.03,0,10.46-8.4,18.91-18.68,18.91-10.32,0-18.68-8.46-18.68-18.91s8.36-19.03,18.68-19.03Z"/>
  <path id="path1950" class="st0" d="M361.6,106.4v44.21c0,34.27-29.06,63.12-62.19,63.12h-99.43c-27.24,0-49.78,23.31-49.78,50.59v94.79c0,26.98,23.46,42.85,49.78,50.59,31.51,9.27,61.73,10.94,99.43,0,25.06-7.26,49.78-21.86,49.78-50.59v-37.94h-99.43v-12.65h149.21c28.93,0,39.71-20.18,49.78-50.47,10.39-31.18,9.95-61.17,0-101.17-7.15-28.8-20.81-50.47-49.78-50.47h-37.36ZM305.67,346.46c10.32,0,18.68,8.46,18.68,18.91s-8.36,19.03-18.68,19.03-18.68-8.53-18.68-19.03,8.4-18.91,18.68-18.91Z"/>
  <ellipse id="path1894" class="st1" cx="250.88" cy="474.13" rx="133.41" ry="25.87"/>
</svg>