<?xml version="1.0" encoding="UTF-8"?>
<svg id="Layer_1" data-name="Layer 1" xmlns="http://www.w3.org/2000/svg" version="1.1" viewBox="0 0 500 500">
  <defs>
    <style>
      .cls-1 {
        fill: #61dafb;
        stroke-width: 0px;
      }
    </style>
  </defs>
  <circle class="cls-1" cx="250" cy="249.9" r="44.6"/>
  <g>
    <path class="cls-1" d="M250,352.1C109.8,352.1,0,307.2,0,249.9s109.8-102.2,250-102.2,250,44.9,250,102.2-109.8,102.2-250,102.2ZM250,169.5c-134.5,0-228.3,42.4-228.3,80.4s93.7,80.4,228.3,80.4,228.3-42.4,228.3-80.4-93.8-80.4-228.3-80.4Z"/>
    <path class="cls-1" d="M349.8,472.9c-22.1,0-48.9-12.2-78-35.8-38.5-31.3-77.7-79.6-110.3-136.1-32.6-56.4-54.8-114.5-62.7-163.5-8.4-52.5.9-89.5,26.2-104.1,49.7-28.6,143.4,44,213.5,165.4h0c70.1,121.4,86.1,238.9,36.5,267.6-7.5,4.3-15.9,6.5-25.2,6.5ZM150.1,48.8c-5.4,0-10.2,1.1-14.3,3.5-16.7,9.6-22.4,39.5-15.6,81.8,7.4,46.5,28.8,101.9,60.1,156.1,31.3,54.2,68.6,100.4,105.2,130.1,33.3,27,62,37,78.6,27.4,32.9-19,22.8-121.4-44.5-237.9h0C260.6,107.5,189,48.8,150.1,48.8Z"/>
    <path class="cls-1" d="M150.2,472.9c-9.3,0-17.7-2.1-25.2-6.5-49.6-28.6-33.6-146.2,36.5-267.6C231.6,77.4,325.3,4.7,375,33.4c25.3,14.6,34.6,51.6,26.2,104.1-7.9,49-30.1,107.1-62.7,163.5h0c-32.6,56.4-71.7,104.8-110.3,136.1-29.1,23.6-55.9,35.8-78,35.8ZM349.9,48.8c-38.9,0-110.5,58.7-169.5,160.9-67.3,116.5-77.4,218.9-44.5,237.9,16.7,9.6,45.4-.4,78.6-27.4,36.5-29.7,73.8-75.9,105.2-130.1,31.3-54.2,52.6-109.6,60.1-156.1,6.8-42.3,1.1-72.2-15.6-81.8-4-2.3-8.8-3.5-14.3-3.5Z"/>
  </g>
</svg>