<?xml version="1.0" encoding="UTF-8"?>
<svg id="Layer_1" data-name="Layer 1" xmlns="http://www.w3.org/2000/svg" version="1.1" viewBox="0 0 500 500">
  <defs>
    <style>
      .cls-1 {
        fill: #cd6799;
        stroke-width: 0px;
      }
    </style>
  </defs>
  <path class="cls-1" d="M425.3,277.2c-16.9,0-31.6,4.2-44,10.2-4.5-9-9-16.9-9.8-22.8-.9-6.8-2-11-.9-19.1,1.1-8.2,5.9-19.8,5.8-20.7s-1.1-5.1-10.8-5.1-18.2,1.9-19.1,4.4-2.8,8.4-4.1,14.5c-1.7,8.9-19.5,40.5-29.7,57.1-3.3-6.5-6.1-12.1-6.7-16.7-.9-6.8-2-11-.9-19.1,1.1-8.2,5.9-19.8,5.8-20.7s-1.1-5.1-10.8-5.1-18.2,1.9-19.1,4.4-2,8.6-4.1,14.5c-2,5.9-25.7,58.7-31.9,72.3-3.2,7-5.9,12.6-7.9,16.4h0s0,.3-.4.7c-1.7,3.3-2.7,5.1-2.7,5.1h0c-1.3,2.5-2.7,4.7-3.5,4.7s-1.5-6.4.2-15.1c3.5-18.4,12-46.9,11.9-47.9,0-.5,1.6-5.5-5.5-8.1-6.9-2.6-9.4,1.7-10,1.7s-1.1,1.5-1.1,1.5c0,0,7.7-32.1-14.7-32.1s-33.3,15.3-42.9,29.2c-6,3.3-18.9,10.3-32.6,17.8-5.2,2.9-10.6,5.9-15.7,8.6-.4-.4-.7-.8-1.1-1.2-27.1-29-77.3-49.5-75.2-88.4.8-14.2,5.7-51.4,96.4-96.6,74.6-36.8,134-26.6,144.3-4,14.7,32.3-31.8,92.2-109,100.9-29.4,3.3-44.9-8.1-48.8-12.3-4.1-4.4-4.7-4.7-6.2-3.8-2.5,1.3-.9,5.3,0,7.6,2.3,6,11.8,16.7,27.8,21.9,14.2,4.6,48.7,7.2,90.4-9,46.7-18.1,83.2-68.4,72.5-110.5-10.7-42.7-81.7-56.8-148.8-33-39.9,14.2-83.2,36.5-114.3,65.6C11.2,179.7,5.4,209.8,7.8,222.4c8.6,44.7,70.2,73.8,94.9,95.3-1.2.7-2.4,1.3-3.4,1.9-12.3,6.1-59.3,30.7-71,56.7-13.3,29.4,2.1,50.5,12.3,53.4,31.6,8.8,64.2-7,81.7-33.1,17.5-26.1,15.3-59.9,7.3-75.4,0-.2-.2-.4-.4-.5,3.2-1.9,6.5-3.8,9.7-5.7,6.3-3.7,12.5-7.2,17.8-10-3,8.2-5.2,18.1-6.3,32.3-1.3,16.7,5.5,38.3,14.5,46.8,4,3.7,8.7,3.8,11.7,3.8,10.5,0,15.2-8.7,20.4-19,6.4-12.6,12.1-27.2,12.1-27.2,0,0-7.2,39.5,12.3,39.5s14.3-9.2,17.5-13.9h0c0,0,.2-.2.5-.8.7-1.2,1.2-1.9,1.2-1.9v-.2c2.8-5,9.2-16.2,18.7-34.9,12.2-24.1,24-54.3,24-54.3,0,0,1.1,7.4,4.7,19.6,2.1,7.2,6.6,15.1,10.1,22.7-2.8,4-4.6,6.2-4.6,6.2h0c-2.3,3.1-4.8,6.4-7.5,9.6-9.7,11.5-21.2,24.7-22.8,28.5-1.9,4.5-1.4,7.8,2.1,10.5,2.6,2,7.2,2.2,11.9,2,8.7-.6,14.8-2.7,17.8-4.1,4.7-1.7,10.2-4.3,15.3-8.1,9.5-7,15.2-17,14.7-30.2-.3-7.3-2.7-14.5-5.6-21.4.9-1.2,1.7-2.5,2.6-3.7,15-21.9,26.6-45.9,26.6-45.9,0,0,1.1,7.4,4.7,19.6,1.8,6.2,5.4,12.9,8.6,19.5-14.1,11.4-22.8,24.7-25.9,33.4-5.6,16.1-1.2,23.4,7,25.1,3.7.8,9-1,12.9-2.7,5-1.6,10.8-4.3,16.4-8.4,9.5-7,18.6-16.8,18.1-30-.3-6-1.9-12-4.1-17.7,12-5,27.4-7.7,47.1-5.4,42.2,5,50.5,31.3,48.9,42.4-1.6,11.1-10.5,17.1-13.4,19s-3.9,2.5-3.6,3.8c.4,2,1.8,1.9,4.3,1.5,3.5-.6,22.2-9,23-29.3,1.3-26.1-23.5-54.5-67.4-54.3ZM99.7,387c-14,15.2-33.5,21-41.9,16.1-9-5.2-5.5-27.7,11.7-43.9,10.5-9.8,23.9-19,32.9-24.6,2-1.2,5.1-3,8.7-5.2.6-.4,1-.5,1-.5h0c.7-.4,1.4-.9,2.1-1.3,6.3,23.1.3,43.4-14.5,59.4ZM201.7,317.7c-4.9,11.9-15.1,42.3-21.3,40.6-5.3-1.4-8.6-24.5-1.1-47.3,3.8-11.4,11.9-25.1,16.6-30.4,7.6-8.5,16-11.3,18.1-7.9,2.6,4.5-9.3,37.5-12.3,44.9ZM285.8,357.9c-2,1.1-4,1.8-4.9,1.2-.6-.4.9-1.8.9-1.8,0,0,10.5-11.3,14.7-16.5,2.4-3,5.2-6.6,8.2-10.5v1.2c0,13.6-13.1,22.7-19,26.4ZM350.7,343.1c-1.5-1.1-1.2-4.6,3.8-15.7,2-4.3,6.6-11.6,14.5-18.6.9,2.8,1.5,5.6,1.4,8.2,0,17.1-12.3,23.5-19.7,26.2Z"/>
</svg>