<?xml version="1.0" encoding="UTF-8"?>
<svg id="Layer_1" xmlns="http://www.w3.org/2000/svg" version="1.1" viewBox="0 0 500 500">
  <!-- Generator: Adobe Illustrator 30.4.0, SVG Export Plug-In . SVG Version: 2.1.4 Build 226)  -->
  <path d="M430.62,278.01c-17.41,0-32.56,4.33-45.33,10.51-4.64-9.27-9.27-17.41-10.1-23.49-.93-7.01-2.06-11.33-.93-19.68,1.13-8.45,6.08-20.4,5.98-21.33s-1.13-5.25-11.13-5.25-18.75,1.96-19.68,4.53-2.88,8.65-4.22,14.94c-1.75,9.17-20.09,41.73-30.6,58.83-3.4-6.7-6.28-12.47-6.9-17.21-.93-7.01-2.06-11.33-.93-19.68,1.13-8.45,6.08-20.4,5.98-21.33s-1.13-5.25-11.13-5.25-18.75,1.96-19.68,4.53-2.06,8.86-4.22,14.94c-2.06,6.08-26.48,60.48-32.87,74.49-3.3,7.21-6.08,12.98-8.14,16.9h0s0,.31-.41.72c-1.75,3.4-2.78,5.25-2.78,5.25h0c-1.34,2.58-2.78,4.84-3.61,4.84s-1.55-6.59.21-15.56c3.61-18.96,12.36-48.32,12.26-49.35,0-.52,1.65-5.67-5.67-8.35-7.11-2.68-9.68,1.75-10.3,1.75s-1.13,1.55-1.13,1.55c0,0,7.93-33.07-15.15-33.07s-34.31,15.76-44.2,30.08c-6.18,3.4-19.47,10.61-33.59,18.34-5.36,2.99-10.92,6.08-16.18,8.86-.41-.41-.72-.82-1.13-1.24-27.92-29.88-79.64-51-77.48-91.08.82-14.63,5.87-52.96,99.32-99.53,76.86-37.91,138.06-27.41,148.67-4.12,15.15,33.28-32.76,94.99-112.3,103.96-30.29,3.4-46.26-8.35-50.28-12.67-4.22-4.53-4.84-4.84-6.39-3.92-2.58,1.34-.93,5.46,0,7.83,2.37,6.18,12.16,17.21,28.64,22.56,14.63,4.74,50.18,7.42,93.14-9.27,48.11-18.65,85.72-70.47,74.7-113.85-11.02-43.99-84.18-58.52-153.31-34-41.11,14.63-85.72,37.61-117.76,67.59C3.98,177.55-2,208.56.47,221.55c8.86,46.05,72.33,76.04,97.77,98.19-1.24.72-2.47,1.34-3.5,1.96-12.67,6.28-61.1,31.63-73.15,58.42-13.7,30.29,2.16,52.03,12.67,55.02,32.56,9.07,66.14-7.21,84.18-34.1,18.03-26.89,15.76-61.71,7.52-77.68,0-.21-.21-.41-.41-.52,3.3-1.96,6.7-3.92,9.99-5.87,6.49-3.81,12.88-7.42,18.34-10.3-3.09,8.45-5.36,18.65-6.49,33.28-1.34,17.21,5.67,39.46,14.94,48.22,4.12,3.81,8.96,3.92,12.05,3.92,10.82,0,15.66-8.96,21.02-19.58,6.59-12.98,12.47-28.02,12.47-28.02,0,0-7.42,40.7,12.67,40.7s14.73-9.48,18.03-14.32h0s.21-.21.52-.82c.72-1.24,1.24-1.96,1.24-1.96v-.21c2.88-5.15,9.48-16.69,19.27-35.96,12.57-24.83,24.73-55.94,24.73-55.94,0,0,1.13,7.62,4.84,20.19,2.16,7.42,6.8,15.56,10.41,23.39-2.88,4.12-4.74,6.39-4.74,6.39h0c-2.37,3.19-4.95,6.59-7.73,9.89-9.99,11.85-21.84,25.45-23.49,29.36-1.96,4.64-1.44,8.04,2.16,10.82,2.68,2.06,7.42,2.27,12.26,2.06,8.96-.62,15.25-2.78,18.34-4.22,4.84-1.75,10.51-4.43,15.76-8.35,9.79-7.21,15.66-17.52,15.15-31.11-.31-7.52-2.78-14.94-5.77-22.05.93-1.24,1.75-2.58,2.68-3.81,15.45-22.56,27.41-47.29,27.41-47.29,0,0,1.13,7.62,4.84,20.19,1.85,6.39,5.56,13.29,8.86,20.09-14.53,11.75-23.49,25.45-26.68,34.41-5.77,16.59-1.24,24.11,7.21,25.86,3.81.82,9.27-1.03,13.29-2.78,5.15-1.65,11.13-4.43,16.9-8.65,9.79-7.21,19.16-17.31,18.65-30.91-.31-6.18-1.96-12.36-4.22-18.24,12.36-5.15,28.23-7.93,48.53-5.56,43.48,5.15,52.03,32.25,50.38,43.68s-10.82,17.62-13.81,19.58c-2.99,1.96-4.02,2.58-3.71,3.92.41,2.06,1.85,1.96,4.43,1.55,3.61-.62,22.87-9.27,23.7-30.19,1.34-26.89-24.21-56.15-69.44-55.94l.1-.21ZM95.16,391.13c-14.42,15.66-34.51,21.64-43.17,16.59-9.27-5.36-5.67-28.54,12.05-45.23,10.82-10.1,24.62-19.58,33.9-25.35,2.06-1.24,5.25-3.09,8.96-5.36.62-.41,1.03-.52,1.03-.52h0c.72-.41,1.44-.93,2.16-1.34,6.49,23.8.31,44.71-14.94,61.2ZM200.25,319.73c-5.05,12.26-15.56,43.58-21.95,41.83-5.46-1.44-8.86-25.24-1.13-48.73,3.92-11.75,12.26-25.86,17.1-31.32,7.83-8.76,16.48-11.64,18.65-8.14,2.68,4.64-9.58,38.64-12.67,46.26v.1ZM286.9,361.15c-2.06,1.13-4.12,1.85-5.05,1.24-.62-.41.93-1.85.93-1.85,0,0,10.82-11.64,15.15-17,2.47-3.09,5.36-6.8,8.45-10.82v1.24c0,14.01-13.5,23.39-19.58,27.2h.1ZM353.76,345.9c-1.55-1.13-1.24-4.74,3.92-16.18,2.06-4.43,6.8-11.95,14.94-19.16.93,2.88,1.55,5.77,1.44,8.45,0,17.62-12.67,24.21-20.3,26.99v-.1Z" fill="#cd6799"/>
</svg>