<?xml version="1.0" encoding="UTF-8"?>
<svg id="Layer_1" data-name="Layer 1" xmlns="http://www.w3.org/2000/svg" version="1.1" xmlns:xlink="http://www.w3.org/1999/xlink" viewBox="0 0 500 500">
  <defs>
    <style>
      .cls-1 {
        fill: #38bdf8;
        fill-rule: evenodd;
      }

      .cls-1, .cls-2 {
        stroke-width: 0px;
      }

      .cls-2 {
        fill: none;
      }

      .cls-3 {
        clip-path: url(#clippath);
      }
    </style>
    <clipPath id="clippath">
      <rect class="cls-2" y="100" width="500" height="300"/>
    </clipPath>
  </defs>
  <g class="cls-3">
    <path class="cls-1" d="M250,100c-66.7,0-108.3,33.3-125,100,25-33.3,54.2-45.8,87.5-37.5,19,4.8,32.6,18.6,47.7,33.8,24.5,24.9,52.9,53.7,114.8,53.7s108.3-33.3,125-100c-25,33.3-54.2,45.8-87.5,37.5-19-4.8-32.6-18.6-47.7-33.8-24.5-24.9-52.9-53.7-114.8-53.7ZM125,250c-66.7,0-108.3,33.3-125,100,25-33.3,54.2-45.8,87.5-37.5,19,4.8,32.6,18.6,47.7,33.8,24.5,24.9,52.9,53.7,114.8,53.7s108.3-33.3,125-100c-25,33.3-54.2,45.8-87.5,37.5-19-4.8-32.6-18.6-47.7-33.8-24.5-24.9-52.9-53.7-114.8-53.7Z"/>
  </g>
</svg>