<?xml version="1.0" encoding="UTF-8"?>
<svg id="Layer_1" data-name="Layer 1" xmlns="http://www.w3.org/2000/svg" version="1.1" viewBox="0 0 500 500">
  <defs>
    <style>
      .cls-1 {
        fill: #000;
        stroke-width: 0px;
      }
    </style>
  </defs>
  <path class="cls-1" d="M128.7,500c-.5,0-1,0-1.6-.2-1.9-.6-3.4-2.1-3.9-4L2.6,6.9c-.5-1.9.1-4,1.5-5.4C5.5.2,7.6-.3,9.5.2l484,139.4c1.9.6,3.4,2.1,3.9,4s-.1,4-1.5,5.4L132.6,498.4c-1.1,1-2.5,1.6-3.9,1.6ZM15.7,13.6l116.1,470L481.2,147.6,15.7,13.6Z"/>
  <path class="cls-1" d="M310.2,325.4c-.5,0-1,0-1.5-.2l-241.9-69.7c-1.9-.6-3.4-2.1-3.9-4-.5-1.9.1-4,1.5-5.4L246,71.3c1.4-1.4,3.5-1.9,5.4-1.3,1.9.6,3.4,2.1,3.9,4l60.3,244.5c.5,1.9-.1,4-1.5,5.4-1.1,1-2.5,1.6-3.9,1.6ZM79.2,247.4l223.3,64.3-55.7-225.7L79.2,247.4Z"/>
  <path class="cls-1" d="M189.9,288.8c-.5,0-1,0-1.5-.2-1.9-.6-3.4-2.1-3.9-4l-30-121.5c-.5-1.9.1-4,1.5-5.4,1.4-1.4,3.5-1.9,5.4-1.3l120.2,34.5c1.9.6,3.4,2.1,3.9,4,.5,1.9-.1,4-1.5,5.4l-90.2,87c-1.1,1-2.5,1.6-3.9,1.6ZM167.7,169.8l25.3,102.7,76.3-73.5-101.6-29.2Z"/>
  <path class="cls-1" d="M159.9,167.5c-.5,0-1,0-1.5-.2l-120.2-34.5c-1.9-.6-3.4-2.1-3.9-4-.5-1.9.1-4,1.5-5.4L126.1,36.4c1.4-1.4,3.5-1.9,5.4-1.3,1.9.6,3.4,2.1,3.9,4l30,121.5c.5,1.9-.1,4-1.5,5.4-1.1,1-2.5,1.6-3.9,1.6ZM50.6,124.7l101.6,29.2-25.3-102.7L50.6,124.7Z"/>
  <path class="cls-1" d="M400.3,236.7c-.5,0-1,0-1.5-.2l-120.2-34.5c-1.9-.6-3.4-2.1-3.9-4-.5-1.9.1-4,1.5-5.4l90.2-87c1.4-1.4,3.5-1.9,5.4-1.3,1.9.6,3.4,2.1,3.9,4l30,121.5c.5,1.9-.1,4-1.5,5.4-1.1,1-2.5,1.6-3.9,1.6ZM290.9,194l101.6,29.2-25.3-102.7-76.3,73.5Z"/>
  <path class="cls-1" d="M219.9,410.3c-.5,0-1,0-1.5-.2l-120.2-34.5c-1.9-.5-3.4-2.1-3.9-4-.5-1.9.1-4,1.5-5.4l90.2-87c1.4-1.4,3.5-1.9,5.4-1.3,1.9.6,3.4,2.1,3.9,4l30,121.5c.5,1.9-.1,4-1.5,5.4-1.1,1-2.5,1.6-3.9,1.6ZM110.5,367.6l101.6,29.2-25.3-102.7-76.3,73.5Z"/>
</svg>