<?xml version="1.0" encoding="UTF-8"?>
<svg id="Layer_1" xmlns="http://www.w3.org/2000/svg" version="1.1" viewBox="0 0 500 500">
  <!-- Generator: Adobe Illustrator 30.1.0, SVG Export Plug-In . SVG Version: 2.1.1 Build 136)  -->
  <defs>
    <style>
      .st0 {
        fill: #fff;
        fill-rule: evenodd;
      }

      .st1 {
        fill: #3178c6;
      }
    </style>
  </defs>
  <rect class="st1" width="500" height="500" rx="50" ry="50"/>
  <rect class="st1" width="500" height="500" rx="50" ry="50"/>
  <path class="st0" d="M309.51,397.88v48.89c7.95,4.07,17.35,7.13,28.2,9.17s22.29,3.06,34.31,3.06,22.85-1.12,33.39-3.36c10.55-2.24,19.79-5.93,27.74-11.08,7.95-5.14,14.24-11.87,18.88-20.17s6.95-18.56,6.95-30.78c0-8.86-1.32-16.63-3.97-23.3s-6.47-12.6-11.46-17.8c-4.99-5.19-10.98-9.85-17.96-13.98s-14.85-8.02-23.61-11.69c-6.42-2.65-12.18-5.22-17.27-7.71-5.09-2.5-9.42-5.04-12.99-7.64-3.57-2.6-6.32-5.35-8.25-8.25-1.94-2.9-2.9-6.19-2.9-9.85,0-3.36.87-6.39,2.6-9.09s4.18-5.02,7.34-6.95c3.16-1.93,7.03-3.44,11.62-4.51,4.59-1.07,9.68-1.6,15.28-1.6,4.08,0,8.38.31,12.91.92,4.53.61,9.09,1.55,13.68,2.83,4.58,1.27,9.04,2.88,13.37,4.81,4.33,1.94,8.33,4.18,12,6.72v-45.68c-7.44-2.85-15.56-4.96-24.38-6.34s-18.93-2.06-30.34-2.06-22.62,1.25-33.01,3.74-19.54,6.39-27.43,11.69c-7.9,5.3-14.14,12.04-18.72,20.24-4.58,8.2-6.88,18-6.88,29.41,0,14.56,4.2,26.99,12.61,37.28,8.41,10.29,21.17,18.99,38.29,26.12,6.72,2.75,12.99,5.45,18.8,8.1s10.83,5.4,15.05,8.25c4.23,2.85,7.57,5.96,10.01,9.32,2.45,3.36,3.67,7.18,3.67,11.46,0,3.16-.76,6.08-2.29,8.78s-3.85,5.04-6.95,7.03-6.98,3.54-11.62,4.66c-4.64,1.12-10.06,1.68-16.28,1.68-10.6,0-21.09-1.86-31.48-5.58-10.39-3.72-20.02-9.29-28.89-16.73h0ZM227.32,277.42h62.71v-40.12H115.23v40.12h62.41v178.63h49.68v-178.63Z"/>
</svg>