<?xml version="1.0" encoding="UTF-8"?>
<svg id="Layer_1" data-name="Layer 1" xmlns="http://www.w3.org/2000/svg" version="1.1" viewBox="0 0 500 500">
  <defs>
    <style>
      .cls-1 {
        fill: #300;
      }

      .cls-1, .cls-2 {
        stroke-width: 0px;
      }

      .cls-2 {
        fill: #ff9a00;
      }
    </style>
  </defs>
  <path id="Path_99510" data-name="Path 99510" class="cls-1" d="M89.1,6.3h323.4c48.4,0,87.5,39.3,87.5,87.6,0,.4,0,.8,0,1.1v310c0,49.1-39.9,88.8-89,88.7,0,0,0,0,0,0H89.1C40,493.9.1,454.1,0,405.1c0,0,0,0,0,0V95C-.5,46.5,38.5,6.7,87,6.3c.7,0,1.3,0,2,0Z"/>
  <path id="Path_99511" data-name="Path 99511" class="cls-2" d="M242.2,297.7h-78.1l-15.6,48.4c0,1.6-1.6,3.1-4.7,3.1h-37.5c-1.7-.1-3-1.4-3.1-3.1l67.2-193.7c1.6-1.6,1.6-3.1,1.6-6.2,1.3-4.6,1.8-9.3,1.6-14.1l1.6-1.6h53.1c1.6,0,3.1,0,3.1,1.6l76.6,214.1c0,1.6,0,3.1-1.6,3.1h-43.7c-1.7-.1-3-1.4-3.1-3.1l-17.2-48.4ZM176.6,255.5h53.1c-1.6-4.7-3.1-9.4-4.7-15.6-1.4-6-3.5-11.7-6.2-17.2-1.6-6.2-4.7-12.5-6.2-18.7-1.4-6.5-3.5-12.8-6.2-18.7-2.1-5-3.6-10.3-4.7-15.6h0c-1.7,9.1-4.3,18-7.8,26.6-3.1,9.4-6.2,20.3-9.4,31.2-1.9,9.6-4.5,19-7.8,28.1Z"/>
  <path id="Path_99512" data-name="Path 99512" class="cls-2" d="M353.1,166.5c-7-.2-13.7-3-18.7-7.8-4.4-5.2-6.6-11.9-6.2-18.7.2-7,3-13.7,7.8-18.7,10.3-10.4,27-10.4,37.3-.2,0,0,.1.1.2.2,5,4.9,7.3,11.9,6.2,18.7.8,7.2-2.2,14.3-7.8,18.7-4.9,5.1-11.7,7.9-18.7,7.8ZM331.2,346.2v-159.4c.1-1.7,1.4-3,3.1-3.1h40.6c1.7.1,3,1.4,3.1,3.1v160.9c-.1,1.7-1.4,3-3.1,3.1h-40.6c-3.1,0-3.1-1.6-3.1-4.7Z"/>
</svg>