<?xml version="1.0" encoding="UTF-8"?>
<svg id="Layer_1" data-name="Layer 1" xmlns="http://www.w3.org/2000/svg" version="1.1" viewBox="0 0 500 500">
  <defs>
    <style>
      .cls-1 {
        fill: #49021f;
      }

      .cls-1, .cls-2 {
        stroke-width: 0px;
      }

      .cls-2 {
        fill: #f36;
      }
    </style>
  </defs>
  <path id="Path_99550" data-name="Path 99550" class="cls-1" d="M89.1,6.3h323.4c48.4,0,87.5,39.3,87.5,87.6v311.1c0,49.1-39.9,88.8-89,88.7H89.1C40,493.9.1,454.1,0,405.1H0V95C-.5,46.5,38.5,6.7,87,6.3h2.1Z"/>
  <g>
    <path id="Path_99538" data-name="Path 99538" class="cls-2" d="M181.3,133.8v214.1c-.1,1.7-1.4,3-3.1,3.1h-40.6c-1.7-.1-3-1.4-3.1-3.1v-214.1q1.6-3.1,4.7-3.1h40.6l1.6,3.1Z"/>
    <path id="Path_99539" data-name="Path 99539" class="cls-2" d="M301.6,354.2c-15.6,0-31-3.1-45.3-9.4-12.8-6.3-23.6-16-31.2-28.1-8-14.3-11.8-30.5-10.9-46.9-.7-31.6,16.1-61.1,43.7-76.6,16.4-8.5,34.7-12.8,53.1-12.5h10.9v-65.6c0-1.6,0-3.1,1.6-3.1h42.2l1.6,1.6h0v210.9c-.3,4.2.3,8.5,1.6,12.5,0,1.6,0,3.1-1.6,3.1-10.9,4.8-22.5,7.9-34.4,9.4-10.1,3.2-20.7,4.8-31.2,4.7ZM321.9,312.1v-92.2c-1.6,0-3.1-1.6-6.2-1.6h-6.2c-8,0-16,1.6-23.4,4.7-7.1,3.5-13.1,8.9-17.2,15.6-4.8,8-7,17.3-6.2,26.6.3,7.4,1.3,14.7,3.1,21.9,1.2,5.7,4.6,10.8,9.4,14.1,4.3,3.2,9.1,5.8,14.1,7.8,5.6,1.8,11.3,2.8,17.2,3.1h9.4c1.6,1.6,4.7,0,6.2,0Z"/>
  </g>
</svg>