<?xml version="1.0" encoding="UTF-8"?>
<svg id="Layer_1" data-name="Layer 1" xmlns="http://www.w3.org/2000/svg" version="1.1" viewBox="0 0 500 500">
  <defs>
    <style>
      .cls-1 {
        fill: #00005b;
      }

      .cls-1, .cls-2 {
        stroke-width: 0px;
      }

      .cls-2 {
        fill: #99f;
      }
    </style>
  </defs>
  <path id="Path_99550" data-name="Path 99550" class="cls-1" d="M89.1,6.3h323.4c48.4,0,87.5,39.3,87.5,87.6v311.1c0,49.1-39.9,88.8-89,88.7H89.1C40,493.9.1,454.1,0,405.1H0V95C-.5,46.5,38.5,6.7,87,6.3h2.1Z"/>
  <path class="cls-2" d="M70.4,133.1c.2-1.2,1.2-2.1,2.5-2.1h58.5c1.7-.2,3.1.8,3.5,2.3,1.5,5.8,3.3,12.7,5.4,21,2.1,8.1,4.4,17.1,6.9,27.1,2.5,9.8,5,20,7.5,30.2s5,20.2,7.5,30c2.5,9.8,4.6,18.8,6.2,26.9,1.7,8.1,3.1,15,4.2,20.2h.4c.8-4.8,2.3-11,4.4-18.8,2.1-7.9,4.6-16.7,7.3-26.2,2.7-9.8,5.6-19.8,8.5-30s5.6-20.4,8.5-30.6c2.7-10,5.4-19.4,7.7-27.9,2.5-8.5,4.4-15.8,5.8-21.7.2-1.5,1.5-2.5,2.9-2.3h57.1c1.5-.2,2.7.8,2.9,2.1v.2l7.7,214.4c.2.8,0,1.7-.4,2.1-.6.6-1.3.8-2.1.8h-41.5c-.6,0-1-.2-1.7-.4-.4-.4-.6-1.3-.6-1.9,0-11.5,0-23.3-.2-35.8-.2-12.5-.2-25-.4-37.7-.2-12.7-.2-24.8,0-36.5.2-11.7.4-22.3.4-32.3s0-18.3.2-25.6.2-12.7.2-16.3h-.4c-1.2,5.6-2.9,12.9-5,21.9s-4.6,19.2-7.5,30.6c-2.9,11.3-6,22.9-9.2,35-3.3,12.1-6.5,24-9.6,35.8-3.1,11.9-6,22.9-9,33.1s-5.2,19.4-7.1,27.1c-.4,1.7-1.9,2.7-3.5,2.7h-36.5c-1.9.2-3.5-.8-3.8-2.7-1.9-7.9-4.2-16.9-6.5-27.1-2.5-10.2-5-21-7.5-32.3-2.5-11.2-5.2-22.7-8.1-34.4-2.9-11.7-5.6-23.1-8.1-34-2.5-11-4.8-21.2-6.9-30.8-2.1-9.6-4-18.1-5.6-25.4h-.6v26.5c0,10.2-.2,21.7-.4,34-.4,12.5-.6,25.4-1,39-.4,13.5-.6,27.5-1,41.9-.4,14.4-1,28.8-1.7,42.7,0,1.9-.8,2.7-2.5,2.7h-36.9c-.6,0-1.5-.2-2.1-.4-.6-.4-.6-1.3-.4-2.5l11.2-214.6ZM409.8,277.7h-66c.8,6.2,2.9,12.3,6.5,17.7,3.8,5.6,9,10,15.2,12.5,6.9,3.1,15.6,4.8,26.7,4.8s14.6-.6,21.7-1.9c6.7-1.3,13.3-3.1,19.6-5.8,1-.8,1.7-.4,1.7,1.7v31.9c0,.8-.2,1.7-.4,2.5-.4.6-.8,1-1.5,1.5-6.9,3.3-14.2,5.6-21.9,7.3-9.8,1.9-19.6,2.7-29.6,2.5-15.8,0-29.2-2.5-40-7.3-10.2-4.4-19.2-11.2-26.3-19.8-6.7-8.1-11.5-17.3-14.4-27.3-2.9-9.8-4.4-20-4.4-30.4s1.7-22.3,5.2-33.1c3.3-10.4,8.5-20,15.6-28.5,6.9-8.3,15.4-15,25.2-19.8,10.8-5,22.9-7.5,34.8-7.3,11-.2,22.1,1.9,32.3,6.5,8.5,4,16.3,9.8,21.9,17.3,5.4,7.1,9.8,15,12.5,23.8,2.7,8.3,4,16.9,4,25.4s-.2,9.4-.4,13.3c-.4,4-.6,6.9-.8,8.8-.2,1.5-1.5,2.7-2.9,2.7s-3.5.2-6.9.4c-3.3.4-7.3.6-12.1.6-4.8,0-10,.2-15.2.2ZM343.8,245h43.7c5.4,0,9.4,0,11.9-.2,1.7,0,3.3-.2,4.8-.4v-2.1c0-2.7-.4-5.2-1.3-7.7-3.8-11.7-14.8-19.6-27.1-19.2-11.5-.6-22.3,5.4-27.7,15.8-2.3,4.4-3.7,9-4.4,13.7Z"/>
</svg>