<?xml version="1.0" encoding="UTF-8"?>
<svg id="Layer_1" data-name="Layer 1" xmlns="http://www.w3.org/2000/svg" version="1.1" viewBox="0 0 500 500">
  <defs>
    <style>
      .cls-1 {
        fill: #470137;
      }

      .cls-1, .cls-2 {
        stroke-width: 0px;
      }

      .cls-2 {
        fill: #ff61f6;
      }
    </style>
  </defs>
  <path id="Path_99550" data-name="Path 99550" class="cls-1" d="M89.1,6.3h323.4c48.4,0,87.5,39.3,87.5,87.6v311.1c0,49.1-39.9,88.8-89,88.7H89.1C40,493.9.1,454.1,0,405.1H0V95C-.5,46.5,38.5,6.7,87,6.3h2.1Z"/>
  <g id="Layer_2" data-name="Layer 2">
    <g id="Outlined_Mnemonics_Logos" data-name="Outlined Mnemonics Logos">
      <g id="Xd">
        <path class="cls-2" d="M262.9,134.4l-62.5,103.1,66.7,109.4c.4.8.6,1.7.4,2.5s-1,.2-2.3.4h-47.7c-3.3,0-5.6-.2-7.1-2.3-4.4-8.7-9-17.3-13.3-26-4.4-8.5-9.2-17.3-14.2-26.3-5-9-10-17.9-15-27.1h-.4c-4.4,9-9.2,17.9-14,26.9-4.8,9-9.6,17.9-14.2,26.7-4.8,8.7-9.6,17.7-14.4,26.3-.8,2.1-2.5,2.3-4.8,2.3h-45.8c-.8,0-1.5.4-1.5-.6-.2-.8,0-1.7.4-2.3l64.8-106.2-63.1-106.9c-.6-.8-.8-1.7-.4-2.1.4-.6,1.2-.8,2.1-.8h47.3c1,0,2.1.2,2.9.4.8.4,1.5,1,2.1,1.9,4,9,8.5,17.9,13.3,26.9,5,9,9.8,17.7,15,26.5,5,8.7,9.6,17.5,14,26.5h.4c4.4-9.2,9-18.1,13.5-26.9,4.6-8.7,9.4-17.5,14.2-26.2s9.4-17.7,14-26.2c.2-.8.6-1.7,1.2-2.1.8-.4,1.7-.6,2.7-.4h44c1-.2,2.1.4,2.3,1.5.2.2-.2,1-.6,1.5h0Z"/>
        <path class="cls-2" d="M359.2,354.2c-15.4.2-30.8-2.9-44.8-9.4-13.1-6-24-16-31.5-28.3-7.7-12.7-11.5-28.5-11.5-47.5-.2-15.4,3.8-30.6,11.5-44,7.9-13.5,19.4-24.8,33.1-32.3,14.6-8.1,32.1-12.1,52.7-12.1s2.5,0,4.4.2c1.9.2,4,.2,6.5.4v-65.8c0-1.5.6-2.3,2.1-2.3h42.3c1-.2,1.9.6,2.1,1.5v198.7c0,3.8.2,7.9.4,12.5.4,4.4.6,8.5.8,12.1,0,1.5-.6,2.7-2.1,3.3-10.8,4.6-22.3,7.9-34,10-10.6,1.9-21.2,2.9-32.1,2.9ZM379.6,312.5v-91.7c-1.9-.4-3.8-.8-5.6-1-2.3-.2-4.6-.4-6.9-.4-8.1,0-16.3,1.7-23.5,5.4-7.1,3.5-13.1,8.7-17.7,15.4-4.6,6.7-6.9,15.6-6.9,26.5-.2,7.3,1,14.6,3.5,21.5,2.1,5.6,5.2,10.6,9.4,14.8,4,3.8,8.7,6.7,14.2,8.3,5.6,1.9,11.5,2.7,17.3,2.7s6-.2,8.7-.4c2.7.2,5-.2,7.5-1Z"/>
      </g>
    </g>
  </g>
</svg>