<?xml version="1.0" encoding="UTF-8"?>
<svg id="Layer_1" data-name="Layer 1" xmlns="http://www.w3.org/2000/svg" version="1.1" viewBox="0 0 500 500">
  <defs>
    <style>
      .cls-1 {
        fill: #31a8ff;
      }

      .cls-1, .cls-2 {
        stroke-width: 0px;
      }

      .cls-2 {
        fill: #001e36;
      }
    </style>
  </defs>
  <path id="Path_99550" data-name="Path 99550" class="cls-2" d="M89.1,6.3h323.4c48.4,0,87.5,39.3,87.5,87.6,0,.4,0,.8,0,1.1v310c0,49.1-39.9,88.8-89,88.7,0,0,0,0,0,0H89.1C40,493.9.1,454.1,0,405.1c0,0,0,0,0,0V95C-.5,46.5,38.5,6.7,87,6.3c.7,0,1.3,0,2,0Z"/>
  <path id="Path_99551" data-name="Path 99551" class="cls-1" d="M112.5,347.7v-214.1c0-1.6,0-3.1,1.6-3.1h65.6c14.3-.7,28.7,1.4,42.2,6.2,10.3,3.3,19.9,8.6,28.1,15.6,6.9,6.5,12.3,14.5,15.6,23.4,3.1,8.5,4.7,17.5,4.7,26.6.4,15.5-4,30.8-12.5,43.7-8.3,11.3-19.7,19.9-32.8,25-15.1,5.1-30.9,7.8-46.9,7.8h-20.3v67.2c-.2,1.2-.7,2.3-1.6,3.1h-40.6c-1.6,1.6-3.1,0-3.1-1.6ZM157.8,171.2v70.3h18.7c7.9-.3,15.7-1.3,23.4-3.1,6.6-2.1,12.5-5.9,17.2-10.9,4.8-6.2,7.1-14.1,6.2-21.9,0-6.5-1.7-13-4.7-18.7-3.9-5-8.7-9.2-14.1-12.5-7.9-3.2-16.4-4.8-25-4.7h-14.1c-2.7.2-5.3.7-7.8,1.6Z"/>
  <path id="Path_99552" data-name="Path 99552" class="cls-1" d="M400,227.3c-6.4-3.5-13.2-6.2-20.3-7.8-7.7-1.8-15.5-2.9-23.4-3.1-4.2-.3-8.5.3-12.5,1.6-3.1,0-4.7,1.6-6.2,4.7-1.6,1.6-1.6,3.1-1.6,6.2-.2,1.7.4,3.4,1.6,4.7,2.3,2.5,4.9,4.6,7.8,6.2,4.4,2.7,9.1,4.8,14.1,6.2,11.1,3.6,21.7,8.9,31.2,15.6,6.5,4.9,12.3,10.7,17.2,17.2,3.2,6.8,4.8,14.3,4.7,21.9-.4,9.9-3.1,19.5-7.8,28.1-6.3,7.9-14.3,14.3-23.4,18.7-11.9,4.6-24.7,6.7-37.5,6.2-9.4-.3-18.9-1.3-28.1-3.1-7.5-1.4-14.8-3.4-21.9-6.2-1.6,0-3.1-3.1-3.1-4.7v-35.9l1.6-1.6h1.6c8.4,4.6,17.3,8.2,26.6,10.9,8.2,1.9,16.6,3,25,3.1,5.9.2,11.7-.9,17.2-3.1,3.7-1.7,6.1-5.3,6.2-9.4,0-3.3-1.8-6.3-4.7-7.8-6.1-4.3-13-7.5-20.3-9.4-10.6-3.6-20.7-8.9-29.7-15.6-6.4-4.5-11.7-10.4-15.6-17.2-3.2-6.8-4.8-14.3-4.7-21.9.2-8.9,2.9-17.6,7.8-25,4.9-8.6,12.6-15.2,21.9-18.7,11.7-5.5,24.6-8.1,37.5-7.8,8.9-.3,17.8.3,26.6,1.6,6.4.8,12.7,2.4,18.7,4.7l1.6,1.6v37.5l-1.6,1.6h-6.2Z"/>
</svg>