<?xml version="1.0" encoding="UTF-8"?>
<svg id="Layer_1" data-name="Layer 1" xmlns="http://www.w3.org/2000/svg" version="1.1" viewBox="0 0 500 500">
  <defs>
    <style>
      .cls-1 {
        fill: #00005b;
      }

      .cls-1, .cls-2 {
        stroke-width: 0px;
      }

      .cls-2 {
        fill: #99f;
      }
    </style>
  </defs>
  <path id="Path_99550" data-name="Path 99550" class="cls-1" d="M89.1,6.3h323.4c48.4,0,87.5,39.3,87.5,87.6v311.1c0,49.1-39.9,88.8-89,88.7H89.1C40,493.9.1,454.1,0,405.1H0V95C-.5,46.5,38.5,6.7,87,6.3h2.1Z"/>
  <g>
    <path id="Path_99505" data-name="Path 99505" class="cls-2" d="M201.6,297.7h-78.1l-15.6,48.4c0,1.6-1.6,3.1-4.7,3.1h-39.1c-1.6,1.6-3.1,0-1.6-3.1l67.2-192.2c0-1.6,1.6-4.7,1.6-6.2,1.3-4.6,1.8-9.3,1.6-14.1l1.6-3.1h53.1c1.6,0,3.1,0,3.1,1.6l76.6,214.1c0,1.6,0,3.1-1.6,3.1h-43.7c-1.7-.1-3-1.4-3.1-3.1l-17.2-48.4ZM135.9,257.1h53.1c-1.6-4.7-3.1-9.4-4.7-15.6-1.4-6-3.5-11.7-6.2-17.2-1.6-6.2-4.7-12.5-6.2-18.7-1.4-6.5-3.5-12.8-6.2-18.7-2.1-5-3.6-10.3-4.7-15.6h0c-1.7,9.1-4.3,18-7.8,26.6-3.1,9.4-6.2,20.3-9.4,31.2-1.9,9.6-4.5,19-7.8,28.1Z"/>
    <path id="Path_99506" data-name="Path 99506" class="cls-2" d="M390.6,278.8h-65.6c1.4,6.5,3.5,12.8,6.2,18.7,3.7,5.8,9.2,10.2,15.6,12.5,8.5,3.2,17.5,4.8,26.6,4.7,7.4-.3,14.7-1.3,21.9-3.1l18.7-4.7c1.6-1.6,1.6,0,1.6,1.6v34.4l-1.6,1.6c-6.5,2.8-13.3,4.9-20.3,6.2-9.8,1.8-19.7,2.9-29.7,3.1-13.9.1-27.7-2.5-40.6-7.8-10.2-4.8-19.2-11.8-26.6-20.3-6.2-8-11-17-14.1-26.6-3.1-9.6-4.7-19.6-4.7-29.7,0-11.1,1.6-22.1,4.7-32.8,3.3-10.3,8.6-19.9,15.6-28.1,6.9-8.4,15.4-15.3,25-20.3,10.9-4.6,22.6-6.7,34.4-6.2,11.3-.2,22.4,1.9,32.8,6.2,8.6,3.8,16.1,9.7,21.9,17.2,5.4,7.1,9.6,15,12.5,23.4,3.1,8,4.6,16.5,4.7,25v14.1c.4,3.2-.2,6.5-1.6,9.4-.1,1.7-1.4,3-3.1,3.1h-18.7c-5.1-1.3-10.4-1.8-15.6-1.6ZM325,247.6h56.2c1.7.2,3.4-.4,4.7-1.6v-1.6c.2-2.7-.3-5.4-1.6-7.8-2.6-12.2-14.2-20.3-26.6-18.7-11.4.3-21.9,6.1-28.1,15.6-2.9,4.1-4.6,9-4.7,14.1Z"/>
  </g>
</svg>