<?xml version="1.0" encoding="UTF-8"?>
<svg id="Layer_1" data-name="Layer 1" xmlns="http://www.w3.org/2000/svg" version="1.1" viewBox="0 0 500 500">
  <defs>
    <style>
      .cls-1 {
        fill: #36697f;
      }

      .cls-1, .cls-2, .cls-3, .cls-4 {
        stroke-width: 0px;
      }

      .cls-2 {
        fill: #37a5cc;
      }

      .cls-3 {
        fill: #fff;
      }

      .cls-4 {
        fill: #7dc6dd;
      }
    </style>
  </defs>
  <g id="_7dc6ddff" data-name="#7dc6ddff">
    <path class="cls-4" d="M0,70.5c27-16.2,53.9-32.6,81-48.7,0,124.4-.1,248.8,0,373.1-12.3,7.6-24.8,14.9-37.1,22.4-14.7,8.8-29.3,17.7-44,26.4C0,319.4,0,194.9,0,70.5Z"/>
  </g>
  <g id="_37a5ccff" data-name="#37a5ccff">
    <path class="cls-2" d="M81,21.8c118-.2,236,0,354,0,14.6-.9,28.3,11.6,28.3,26.2.3,19.3,0,38.6.1,57.9,0,96.3,0,192.6,0,289-127.4.1-254.9,0-382.3,0-.2-124.4,0-248.8,0-373.1M165.2,105.1c0,69,0,138,0,207h44.7c0-45.7,0-91.4,0-137.1,12.6,45.6,24.1,91.5,36.3,137.1,16.2,0,32.4,0,48.6,0,11.7-43.7,22.9-87.6,34.7-131.3.1,43.7,0,87.5,0,131.2,16.4,0,32.9,0,49.3,0,0-69-.1-137.9,0-206.9-21.1-.3-42.3,0-63.4-.1-14.4,55-28.9,110-43.5,164.9-14.1-54.9-27.6-110-41.5-164.9-21.8,0-43.6,0-65.4,0Z"/>
  </g>
  <g id="_ffffffff" data-name="#ffffffff">
    <path class="cls-3" d="M165.2,105.1c21.8,0,43.6,0,65.4,0,13.9,55,27.4,110,41.5,164.9,14.6-54.9,29.1-109.9,43.5-164.9,21.1,0,42.3-.2,63.4.1-.2,69,0,137.9,0,206.9-16.4,0-32.9,0-49.3,0,0-43.7,0-87.5,0-131.2-11.8,43.7-23,87.6-34.7,131.3-16.2,0-32.4,0-48.6,0-12.2-45.7-23.7-91.6-36.3-137.1,0,45.7,0,91.4,0,137.1h-44.7c0-69,0-138,0-207Z"/>
  </g>
  <g id="_36697fff" data-name="#36697fff">
    <path class="cls-1" d="M463.4,105.9c12.2,0,24.4,0,36.6,0,0,124.2.2,248.3-.1,372.5H71.9c-5.1-.7-10.4-1.5-14.8-4.2-7.9-4.6-13.2-13.6-13.1-22.8,0-11.3,0-22.6,0-33.9,12.3-7.5,24.8-14.8,37.1-22.4,127.4-.1,254.9,0,382.3,0,0-96.3,0-192.6,0-289Z"/>
  </g>
</svg>