<?xml version="1.0" encoding="UTF-8"?>
<svg id="Layer_1" data-name="Layer 1" xmlns="http://www.w3.org/2000/svg" version="1.1" viewBox="0 0 500 500">
  <defs>
    <style>
      .cls-1 {
        fill: #21759b;
        stroke-width: 0px;
      }
    </style>
  </defs>
  <path class="cls-1" d="M35.5,250c0,84.9,49.3,158.2,120.9,193L54.1,162.7c-11.9,26.7-18.6,56.2-18.6,87.3Z"/>
  <path class="cls-1" d="M394.8,239.2c0-26.5-9.5-44.9-17.7-59.1-10.9-17.7-21.1-32.6-21.1-50.3s15-38.1,36-38.1,1.9.1,2.8.2c-38.2-35-89-56.3-144.8-56.3s-140.8,38.4-179.2,96.7c5,.2,9.8.3,13.8.3,22.4,0,57.2-2.7,57.2-2.7,11.6-.7,12.9,16.3,1.4,17.7,0,0-11.6,1.4-24.5,2l78.1,232.3,46.9-140.8-33.4-91.5c-11.5-.7-22.5-2-22.5-2-11.6-.7-10.2-18.3,1.4-17.7,0,0,35.4,2.7,56.5,2.7s57.2-2.7,57.2-2.7c11.6-.7,12.9,16.3,1.4,17.7,0,0-11.6,1.4-24.5,2l77.5,230.5,21.4-71.5c9.3-29.7,16.3-51,16.3-69.3Z"/>
  <path class="cls-1" d="M253.8,268.8l-64.3,187c19.2,5.6,39.5,8.7,60.6,8.7s48.9-4.3,71.2-12.2c-.6-.9-1.1-1.9-1.5-3l-65.9-180.6Z"/>
  <path class="cls-1" d="M438.2,147.1c.9,6.8,1.4,14.2,1.4,22.1,0,21.8-4.1,46.2-16.3,76.8l-65.5,189.4c63.8-37.2,106.6-106.3,106.6-185.4,0-37.3-9.5-72.3-26.3-102.9Z"/>
  <path class="cls-1" d="M250,0C112.2,0,0,112.2,0,250s112.2,250,250,250,250-112.1,250-250C500,112.2,387.8,0,250,0ZM250,488.5c-131.5,0-238.5-107-238.5-238.5S118.5,11.5,250,11.5s238.5,107,238.5,238.5-107,238.5-238.5,238.5Z"/>
</svg>